<?xml version="1.0" standalone="no"?>
<!DOCTYPE svg PUBLIC "-//W3C//DTD SVG 20010904//EN"
 "http://www.w3.org/TR/2001/REC-SVG-20010904/DTD/svg10.dtd">
<svg version="1.0" xmlns="http://www.w3.org/2000/svg"
 width="663.000000pt" height="663.000000pt" viewBox="0 0 663.000000 663.000000"
 preserveAspectRatio="xMidYMid meet">
<metadata>
Created by potrace 1.14, written by Peter Selinger 2001-2017
</metadata>
<g transform="translate(0.000000,663.000000) scale(0.100000,-0.100000)"
fill="#000000" stroke="none">
<path d="M3756 5263 c-6 -14 -5 -15 5 -6 7 7 10 15 7 18 -3 3 -9 -2 -12 -12z"/>
<path d="M3800 5276 c0 -2 8 -10 18 -17 15 -13 16 -12 3 4 -13 16 -21 21 -21
13z"/>
<path d="M4153 5263 c0 -9 4 -10 14 -2 7 6 13 12 13 14 0 1 -6 2 -13 2 -8 0
-14 -6 -14 -14z"/>
<path d="M3633 5245 c0 -7 6 -11 14 -8 7 3 13 6 13 8 0 2 -6 5 -13 8 -8 3 -14
-1 -14 -8z"/>
<path d="M3550 5219 c14 -12 24 -26 23 -30 -2 -5 2 -9 7 -9 6 0 10 -7 10 -16
0 -8 5 -12 10 -9 6 3 10 1 10 -4 0 -6 -5 -11 -11 -11 -8 0 -7 -6 2 -17 12 -16
12 -17 -2 -6 -9 7 -19 10 -22 6 -4 -3 1 -12 11 -20 16 -12 15 -13 -3 -6 -11 3
-23 11 -28 17 -4 6 -5 -2 -1 -19 3 -16 6 -35 6 -42 1 -7 5 -10 10 -7 4 3 3 14
-2 24 -8 16 -8 18 4 14 9 -3 15 -9 14 -12 -1 -4 2 -18 6 -31 5 -13 4 -26 0
-30 -5 -3 -9 -13 -9 -21 0 -9 -8 -14 -20 -12 -15 2 -16 0 -7 -6 8 -5 13 -13
12 -18 -1 -5 4 -10 12 -12 9 -2 8 0 -2 7 -13 10 -13 11 0 12 8 1 22 1 30 0 13
-2 13 -1 0 8 -12 8 -12 13 -3 22 7 7 20 14 28 15 12 2 13 -2 4 -18 -9 -17 -9
-20 2 -16 12 5 14 -21 13 -142 0 -81 -4 -152 -8 -158 -3 -6 -3 -13 1 -15 5 -3
8 -27 7 -54 0 -36 -4 -47 -15 -45 -10 2 -9 -2 4 -11 9 -8 17 -17 17 -21 0 -3
-8 -6 -17 -7 -16 0 -15 -1 2 -8 19 -8 19 -8 0 -19 -15 -8 -16 -11 -5 -12 11 0
15 -12 14 -48 0 -27 -4 -54 -8 -60 -4 -7 -4 -12 1 -12 4 0 8 -22 8 -50 0 -53
-3 -57 -25 -37 -12 10 -12 9 -2 -4 6 -9 8 -19 4 -23 -4 -4 -1 -6 7 -4 15 3 23
-39 9 -48 -4 -3 -6 -10 -2 -15 9 -16 13 -79 4 -79 -5 0 -11 6 -13 13 -4 9 -6
9 -6 -1 -1 -7 6 -15 14 -18 8 -4 12 -10 9 -15 -3 -5 -11 -6 -17 -2 -7 4 -6 -1
2 -10 13 -17 23 -127 11 -127 -3 0 -10 3 -16 8 -5 4 -3 0 6 -8 11 -11 15 -37
14 -106 0 -50 -4 -96 -8 -102 -4 -7 -3 -12 3 -12 10 0 7 -31 -4 -50 -3 -6 -2
-10 3 -10 10 0 9 -30 -2 -48 -4 -6 -4 -12 1 -12 4 0 8 -59 7 -131 -1 -100 -4
-133 -15 -140 -12 -7 -12 -9 1 -9 12 0 15 -14 14 -69 -1 -38 -4 -74 -8 -80 -4
-6 -4 -11 1 -11 4 0 8 -30 8 -67 0 -48 -4 -72 -15 -81 -13 -11 -13 -11 0 -7
13 5 16 -4 14 -49 -1 -29 -5 -59 -8 -65 -4 -6 -3 -11 3 -11 10 0 7 -31 -4 -50
-3 -6 -2 -10 3 -10 10 0 9 -30 -2 -48 -4 -6 -4 -12 1 -12 10 0 8 -93 -1 -109
-4 -6 -4 -11 1 -11 4 0 8 -13 8 -30 1 -31 -4 -36 -21 -22 -5 4 -3 0 6 -8 16
-16 23 -83 7 -73 -6 4 -7 1 -1 -8 4 -8 7 -23 6 -35 -3 -21 22 -51 31 -37 6 10
289 9 305 -1 7 -4 12 -4 12 1 0 4 26 7 57 5 74 -3 125 -2 133 3 3 2 23 0 43
-5 20 -4 37 -4 37 0 0 10 20 8 38 -3 6 -5 12 -4 12 1 0 6 14 7 35 2 22 -5 35
-4 35 2 0 6 8 7 18 3 9 -4 22 -7 27 -7 116 4 176 4 181 0 3 -4 19 -2 35 2 17
5 31 5 34 -1 4 -5 14 -5 26 1 13 8 19 7 19 0 0 -6 5 -8 11 -4 7 4 41 8 78 10
69 3 139 11 181 19 14 3 36 7 50 10 14 2 38 7 54 11 21 5 27 3 21 -6 -5 -9 -4
-11 4 -6 6 4 9 11 6 16 -3 4 12 11 33 16 44 9 40 8 75 22 16 7 31 12 34 12 7
0 75 30 93 41 28 18 85 43 93 41 4 -1 7 2 7 6 0 4 15 16 33 27 39 23 111 77
115 88 2 4 8 7 13 7 13 0 143 137 189 200 23 30 48 63 55 73 8 9 12 17 8 17
-3 0 1 8 9 18 8 9 23 36 33 60 10 23 22 42 27 42 4 0 7 3 6 8 -3 10 55 156 64
160 5 2 6 8 3 12 -7 12 5 61 14 56 4 -3 6 7 5 21 -2 46 18 123 30 116 7 -4 6
-1 -1 8 -9 11 -10 25 -4 47 5 17 7 33 4 36 -3 3 0 13 8 23 8 9 9 14 4 11 -6
-4 -9 8 -8 30 4 78 3 249 -2 287 -3 22 -8 60 -10 85 -2 25 -4 45 -5 45 -3 0
-11 53 -13 78 -1 9 -4 17 -8 17 -4 0 -6 15 -4 33 3 20 1 27 -4 19 -6 -10 -11
-2 -16 25 -10 45 -9 40 -24 77 -35 86 -75 172 -83 183 -5 7 -7 17 -3 23 3 5
-2 10 -11 10 -10 0 -15 3 -11 6 3 3 -3 16 -14 27 -11 12 -17 27 -14 35 3 8 0
10 -7 6 -7 -5 -9 -2 -5 9 4 11 2 14 -9 10 -7 -3 -14 0 -14 5 0 6 -11 23 -25
38 -14 15 -25 34 -25 42 0 8 -3 13 -6 10 -10 -11 -76 62 -71 77 4 9 1 12 -7 9
-11 -4 -126 80 -134 99 -2 4 -10 7 -18 7 -8 0 -14 3 -14 8 0 4 -23 18 -50 31
-28 14 -50 29 -50 33 0 4 -9 8 -20 8 -12 0 -20 7 -20 18 0 10 -3 13 -8 6 -5
-7 -14 -7 -29 1 -13 7 -20 15 -16 19 4 4 1 4 -8 1 -8 -3 -33 2 -55 11 -40 17
-134 44 -169 49 -11 2 -20 4 -20 5 0 1 -16 4 -35 7 -19 2 -38 9 -41 15 -4 6
-9 5 -12 -3 -4 -9 -8 -10 -14 -4 -4 6 -30 11 -57 12 -27 1 -53 8 -58 15 -4 8
-8 9 -8 2 0 -14 -292 -13 -302 1 -5 7 -10 7 -15 0 -9 -12 -63 -15 -63 -3 0 4
-11 3 -25 -2 -16 -6 -25 -6 -25 1 0 6 -7 6 -20 -1 -14 -8 -20 -8 -20 0 0 6 -5
8 -12 4 -17 -11 -108 -12 -102 -2 3 4 0 8 -5 8 -6 0 -11 -3 -11 -8 0 -4 -30
-7 -67 -7 -48 0 -72 4 -81 15 -11 13 -11 13 -7 0 4 -12 -1 -16 -22 -14 -15 1
-28 2 -28 4 0 1 -10 3 -22 4 -12 1 -20 -1 -17 -6 3 -4 1 -8 -5 -8 -5 0 -13 5
-16 10 -5 8 -11 8 -20 0 -9 -8 -15 -8 -20 0 -3 6 -12 7 -18 3 -21 -13 -134 -9
-134 4 0 7 4 10 9 7 7 -4 10 10 7 32 0 4 5 11 13 15 10 7 9 9 -4 9 -10 0 -18
-4 -18 -9 0 -5 -9 -13 -20 -16 -12 -4 -17 -11 -13 -18 5 -9 2 -8 -8 0 -12 9
-18 10 -27 1 -8 -8 -9 -5 -5 11 4 15 9 19 18 11 12 -10 25 -4 25 12 0 8 -28 6
-45 -3 -5 -4 -23 -9 -39 -13 -27 -7 -28 -6 -15 10 13 16 12 16 -8 3 -13 -8
-23 -17 -23 -22 0 -4 4 -6 9 -2 5 3 13 0 17 -6 4 -8 3 -9 -4 -5 -7 4 -12 1
-12 -6 0 -10 -2 -10 -9 1 -7 11 -10 11 -15 0 -3 -8 -3 -3 0 11 l5 25 -14 -24
c-12 -20 -15 -21 -20 -7 -4 10 -3 15 1 12 4 -2 9 5 9 16 2 19 1 19 -11 2 -13
-17 -15 -17 -42 0 l-29 17 25 -22z m1149 -723 c10 -6 12 -6 7 3 -6 9 8 10 56
5 35 -3 66 -8 69 -10 4 -2 24 -6 44 -10 75 -12 201 -84 260 -149 62 -69 110
-149 99 -167 -4 -6 -3 -8 4 -4 13 8 47 -88 56 -159 2 -11 6 -27 9 -35 11 -27
15 -130 5 -124 -6 4 -5 -4 2 -16 11 -21 10 -22 -6 -16 -18 6 -18 5 0 -9 17
-12 17 -17 5 -32 -8 -10 -9 -14 -2 -10 9 6 11 -5 7 -40 -7 -55 -12 -88 -14
-88 -1 0 -3 -15 -5 -33 -2 -18 -9 -41 -17 -50 -9 -11 -9 -14 -1 -8 9 5 11 2 7
-8 -3 -9 -10 -16 -15 -16 -4 0 -6 -6 -3 -14 3 -8 1 -17 -5 -21 -6 -3 -11 -15
-11 -26 0 -10 -4 -19 -8 -19 -5 0 -9 -6 -9 -13 0 -16 -52 -107 -62 -107 -4 0
-13 6 -21 13 -12 10 -12 9 0 -6 11 -15 10 -22 -7 -45 -12 -15 -28 -26 -37 -26
-19 2 -21 -12 -3 -20 6 -4 2 -4 -11 -2 -17 3 -22 1 -18 -9 8 -21 -12 -29 -32
-13 -15 11 -16 11 -4 -3 10 -13 9 -19 -3 -29 -8 -7 -24 -10 -35 -7 -11 3 -23
0 -27 -5 -3 -7 -1 -8 5 -4 7 4 12 2 12 -5 0 -6 -8 -9 -20 -6 -11 3 -18 0 -17
-7 1 -6 -8 -10 -22 -8 -13 2 -21 -1 -17 -6 3 -5 -4 -12 -17 -16 -12 -3 -23 -1
-25 4 -2 5 -10 4 -17 -4 -7 -7 -33 -16 -57 -19 -65 -9 -341 -3 -357 7 -10 6
-12 6 -7 -2 4 -7 1 -12 -7 -12 -8 0 -17 7 -21 15 -3 8 -1 15 4 15 6 0 6 9 0
25 -6 17 -6 25 1 25 6 0 7 5 3 11 -7 12 -8 158 -1 165 3 3 1 21 -3 40 -4 18
-4 34 1 34 5 0 4 11 -1 25 -5 14 -6 25 -2 25 11 0 8 84 -3 92 -6 4 -1 8 10 9
l20 0 -20 9 c-11 5 -15 9 -9 9 8 1 9 12 4 36 -4 19 -4 35 1 35 5 0 4 11 -1 25
-5 14 -6 25 -2 25 4 0 7 11 7 25 0 14 -2 25 -5 25 -3 0 -5 29 -5 65 0 36 4 65
10 65 5 0 5 4 -1 10 -5 5 -7 38 -4 75 3 41 2 65 -5 66 -5 0 -1 4 10 9 l20 9
-20 0 c-17 1 -17 3 -5 11 13 9 13 10 0 11 -10 0 -8 3 5 9 13 6 15 9 5 9 -10 1
-15 11 -15 31 0 17 3 30 7 30 4 0 3 11 -2 24 -5 13 -6 26 -4 29 10 10 9 197 0
197 -6 0 -1 7 10 16 10 8 13 13 7 9 -9 -4 -13 5 -13 33 l0 38 138 0 c75 -1
143 -5 151 -10z"/>
<path d="M4426 4492 c-3 -4 4 -9 15 -9 23 -2 25 3 4 10 -8 4 -16 3 -19 -1z"/>
<path d="M4475 4491 c-3 -5 0 -13 6 -17 7 -4 9 -3 5 4 -3 5 0 13 6 15 9 4 10
6 1 6 -6 1 -14 -3 -18 -8z"/>
<path d="M4587 4489 c7 -7 15 -10 18 -7 3 3 -2 9 -12 12 -14 6 -15 5 -6 -5z"/>
<path d="M4773 4475 c0 -8 4 -12 9 -9 5 3 6 10 3 15 -9 13 -12 11 -12 -6z"/>
<path d="M4430 4460 c-9 -6 -10 -10 -3 -10 6 0 15 5 18 10 8 12 4 12 -15 0z"/>
<path d="M4468 4441 c3 -8 1 -12 -5 -8 -5 3 -10 -1 -10 -9 0 -11 6 -9 24 8 28
26 27 24 4 24 -12 0 -17 -5 -13 -15z"/>
<path d="M4476 4412 c-3 -5 1 -9 9 -9 8 0 12 4 9 9 -3 4 -7 8 -9 8 -2 0 -6 -4
-9 -8z"/>
<path d="M4570 4370 c0 -5 5 -10 11 -10 5 0 7 5 4 10 -3 6 -8 10 -11 10 -2 0
-4 -4 -4 -10z"/>
<path d="M4513 4355 c0 -8 4 -15 9 -15 4 0 8 4 8 9 0 6 -4 12 -8 15 -5 3 -9
-1 -9 -9z"/>
<path d="M4475 4340 c-3 -5 -3 -10 1 -10 4 0 -1 -10 -12 -22 -19 -23 -19 -23
2 -5 11 9 21 24 21 32 0 18 -3 19 -12 5z"/>
<path d="M4436 4325 c-11 -8 -15 -15 -9 -15 6 0 16 7 23 15 16 19 11 19 -14 0z"/>
<path d="M4530 4289 c0 -5 5 -7 10 -4 6 3 10 8 10 11 0 2 -4 4 -10 4 -5 0 -10
-5 -10 -11z"/>
<path d="M4436 4252 c-3 -5 1 -9 9 -9 8 0 12 4 9 9 -3 4 -7 8 -9 8 -2 0 -6 -4
-9 -8z"/>
<path d="M4520 4250 c-12 -7 -10 -9 7 -7 12 0 19 5 17 9 -6 10 -6 10 -24 -2z"/>
<path d="M4535 4191 c-3 -5 -2 -12 3 -15 5 -3 9 1 9 9 0 17 -3 19 -12 6z"/>
<path d="M4462 4155 c15 -16 20 -17 30 -6 11 11 10 13 0 7 -7 -4 -21 -2 -30 5
-15 12 -15 11 0 -6z"/>
<path d="M4550 4126 c0 -2 8 -10 18 -17 15 -13 16 -12 3 4 -13 16 -21 21 -21
13z"/>
<path d="M5109 4113 c-13 -16 -12 -17 4 -4 9 7 17 15 17 17 0 8 -8 3 -21 -13z"/>
<path d="M4439 4083 c-13 -16 -12 -17 4 -4 16 13 21 21 13 21 -2 0 -10 -8 -17
-17z"/>
<path d="M4810 4071 c0 -6 4 -13 10 -16 6 -3 7 1 4 9 -7 18 -14 21 -14 7z"/>
<path d="M4536 4048 c3 -5 10 -6 15 -3 13 9 11 12 -6 12 -8 0 -12 -4 -9 -9z"/>
<path d="M4469 4033 c-13 -16 -12 -17 4 -4 16 13 21 21 13 21 -2 0 -10 -8 -17
-17z"/>
<path d="M4490 3970 c0 -5 5 -10 11 -10 5 0 7 5 4 10 -3 6 -8 10 -11 10 -2 0
-4 -4 -4 -10z"/>
<path d="M4490 3930 c0 -5 5 -10 11 -10 5 0 7 5 4 10 -3 6 -8 10 -11 10 -2 0
-4 -4 -4 -10z"/>
<path d="M4495 3901 c-3 -5 -2 -12 3 -15 5 -3 9 1 9 9 0 17 -3 19 -12 6z"/>
<path d="M4493 3781 c0 -11 5 -18 9 -15 4 3 5 11 1 19 -7 21 -12 19 -10 -4z"/>
<path d="M4516 3703 c-6 -14 -5 -15 5 -6 7 7 10 15 7 18 -3 3 -9 -2 -12 -12z"/>
<path d="M4494 3666 c1 -8 5 -18 8 -22 4 -3 5 1 4 10 -1 8 -5 18 -8 22 -4 3
-5 -1 -4 -10z"/>
<path d="M4495 3611 c-3 -5 -2 -12 3 -15 5 -3 9 1 9 9 0 17 -3 19 -12 6z"/>
<path d="M5194 3612 c4 -3 14 -7 22 -8 9 -1 13 0 10 4 -4 3 -14 7 -22 8 -9 1
-13 0 -10 -4z"/>
<path d="M5150 3529 c0 -5 5 -7 10 -4 6 3 10 8 10 11 0 2 -4 4 -10 4 -5 0 -10
-5 -10 -11z"/>
<path d="M5076 3483 c-6 -14 -5 -15 5 -6 7 7 10 15 7 18 -3 3 -9 -2 -12 -12z"/>
<path d="M4486 3448 c3 -5 10 -6 15 -3 13 9 11 12 -6 12 -8 0 -12 -4 -9 -9z"/>
<path d="M5136 3452 c-3 -4 4 -9 15 -9 23 -2 25 3 4 10 -8 4 -16 3 -19 -1z"/>
<path d="M4880 3430 c-9 -6 -10 -10 -3 -10 6 0 15 5 18 10 8 12 4 12 -15 0z"/>
<path d="M5045 3430 c-3 -6 1 -7 9 -4 18 7 21 14 7 14 -6 0 -13 -4 -16 -10z"/>
<path d="M5090 3410 c0 -5 5 -10 11 -10 5 0 7 5 4 10 -3 6 -8 10 -11 10 -2 0
-4 -4 -4 -10z"/>
<path d="M5150 3416 c0 -2 7 -7 16 -10 8 -3 12 -2 9 4 -6 10 -25 14 -25 6z"/>
<path d="M5193 3395 c0 -8 4 -12 9 -9 5 3 6 10 3 15 -9 13 -12 11 -12 -6z"/>
<path d="M4586 3388 c3 -5 10 -6 15 -3 13 9 11 12 -6 12 -8 0 -12 -4 -9 -9z"/>
<path d="M5019 3398 c-5 -18 -6 -38 -1 -34 7 8 12 36 6 36 -2 0 -4 -1 -5 -2z"/>
<path d="M5055 3370 c-3 -5 -1 -10 4 -10 6 0 11 5 11 10 0 6 -2 10 -4 10 -3 0
-8 -4 -11 -10z"/>
<path d="M5089 3353 c-13 -16 -12 -17 4 -4 9 7 17 15 17 17 0 8 -8 3 -21 -13z"/>
<path d="M5175 3359 c-4 -6 -5 -12 -2 -15 2 -3 7 2 10 11 7 17 1 20 -8 4z"/>
<path d="M4955 3350 c3 -5 8 -10 11 -10 2 0 4 5 4 10 0 6 -5 10 -11 10 -5 0
-7 -4 -4 -10z"/>
<path d="M4433 3335 c0 -8 4 -12 9 -9 5 3 6 10 3 15 -9 13 -12 11 -12 -6z"/>
<path d="M5114 3326 c0 -12 6 -23 13 -23 9 0 10 4 3 12 -5 7 -7 14 -4 17 3 3
1 8 -3 11 -5 3 -9 -5 -9 -17z"/>
<path d="M4535 3331 c-3 -5 -2 -12 3 -15 5 -3 9 1 9 9 0 17 -3 19 -12 6z"/>
<path d="M4596 3323 c-6 -14 -5 -15 5 -6 7 7 10 15 7 18 -3 3 -9 -2 -12 -12z"/>
<path d="M4796 3323 c-6 -14 -5 -15 5 -6 7 7 10 15 7 18 -3 3 -9 -2 -12 -12z"/>
<path d="M5000 3310 c-9 -6 -10 -10 -3 -10 6 0 15 5 18 10 8 12 4 12 -15 0z"/>
<path d="M4573 3279 c-2 -23 3 -25 10 -4 4 8 3 16 -1 19 -4 3 -9 -4 -9 -15z"/>
<path d="M4895 3290 c3 -5 8 -10 11 -10 2 0 4 5 4 10 0 6 -5 10 -11 10 -5 0
-7 -4 -4 -10z"/>
<path d="M4655 3250 c3 -5 8 -10 11 -10 2 0 4 5 4 10 0 6 -5 10 -11 10 -5 0
-7 -4 -4 -10z"/>
<path d="M4735 3249 c-3 -4 2 -6 10 -5 21 3 28 13 10 13 -9 0 -18 -4 -20 -8z"/>
<path d="M4453 3235 c0 -8 4 -15 9 -15 4 0 8 4 8 9 0 6 -4 12 -8 15 -5 3 -9
-1 -9 -9z"/>
<path d="M4556 3237 c3 -10 9 -15 12 -12 3 3 0 11 -7 18 -10 9 -11 8 -5 -6z"/>
<path d="M4969 3233 c-13 -16 -12 -17 4 -4 9 7 17 15 17 17 0 8 -8 3 -21 -13z"/>
<path d="M5035 3240 c-3 -6 1 -7 9 -4 18 7 21 14 7 14 -6 0 -13 -4 -16 -10z"/>
<path d="M4890 3231 c0 -6 4 -13 10 -16 6 -3 7 1 4 9 -7 18 -14 21 -14 7z"/>
<path d="M4650 3210 c0 -5 5 -10 11 -10 5 0 7 5 4 10 -3 6 -8 10 -11 10 -2 0
-4 -4 -4 -10z"/>
<path d="M4947 3209 c7 -7 15 -10 18 -7 3 3 -2 9 -12 12 -14 6 -15 5 -6 -5z"/>
<path d="M4479 3208 c-5 -18 -6 -38 -1 -34 7 8 12 36 6 36 -2 0 -4 -1 -5 -2z"/>
<path d="M4796 3191 c-3 -5 2 -15 12 -22 15 -12 16 -12 5 2 -7 9 -10 19 -6 22
3 4 4 7 0 7 -3 0 -8 -4 -11 -9z"/>
<path d="M5010 3190 c0 -5 5 -10 10 -10 6 0 10 5 10 10 0 6 -4 10 -10 10 -5 0
-10 -4 -10 -10z"/>
<path d="M4513 3175 c0 -8 10 -23 21 -32 21 -18 21 -18 4 2 -9 11 -17 24 -16
28 0 5 -2 11 -4 13 -3 2 -5 -3 -5 -11z"/>
<path d="M4433 3157 c-1 -11 -1 -18 0 -16 2 2 8 11 15 20 9 12 9 16 -1 16 -7
0 -14 -9 -14 -20z"/>
<path d="M4719 3163 c-13 -16 -12 -17 4 -4 16 13 21 21 13 21 -2 0 -10 -8 -17
-17z"/>
<path d="M4610 3166 c0 -2 8 -10 18 -17 15 -13 16 -12 3 4 -13 16 -21 21 -21
13z"/>
<path d="M4770 3166 c0 -2 8 -10 18 -17 15 -13 16 -12 3 4 -13 16 -21 21 -21
13z"/>
<path d="M4459 3143 c-13 -16 -12 -17 4 -4 16 13 21 21 13 21 -2 0 -10 -8 -17
-17z"/>
<path d="M4589 3147 c6 -8 9 -16 6 -19 -3 -2 2 -5 10 -5 13 0 13 3 -2 19 -19
21 -31 25 -14 5z"/>
<path d="M4670 3156 c0 -2 7 -7 16 -10 8 -3 12 -2 9 4 -6 10 -25 14 -25 6z"/>
<path d="M4870 3150 c0 -6 4 -9 9 -6 5 4 12 1 14 -4 3 -6 4 -5 3 2 -3 15 -26
23 -26 8z"/>
<path d="M4836 3137 c3 -10 9 -15 12 -12 3 3 0 11 -7 18 -10 9 -11 8 -5 -6z"/>
<path d="M4780 3126 c0 -2 7 -6 15 -10 8 -3 15 -1 15 4 0 6 -7 10 -15 10 -8 0
-15 -2 -15 -4z"/>
<path d="M4645 3110 c-2 -3 7 -6 21 -6 13 0 24 3 24 7 0 9 -40 8 -45 -1z"/>
<path d="M4735 3110 c3 -5 8 -10 11 -10 2 0 4 5 4 10 0 6 -5 10 -11 10 -5 0
-7 -4 -4 -10z"/>
<path d="M4226 5228 c3 -5 10 -6 15 -3 13 9 11 12 -6 12 -8 0 -12 -4 -9 -9z"/>
<path d="M4526 5228 c3 -5 10 -6 15 -3 13 9 11 12 -6 12 -8 0 -12 -4 -9 -9z"/>
<path d="M3830 5216 c0 -2 7 -7 16 -10 8 -3 12 -2 9 4 -6 10 -25 14 -25 6z"/>
<path d="M4055 5209 c-3 -4 2 -6 10 -5 21 3 28 13 10 13 -9 0 -18 -4 -20 -8z"/>
<path d="M4693 5199 c-2 -23 3 -25 10 -4 4 8 3 16 -1 19 -4 3 -9 -4 -9 -15z"/>
<path d="M4730 5209 c0 -5 5 -7 10 -4 6 3 10 8 10 11 0 2 -4 4 -10 4 -5 0 -10
-5 -10 -11z"/>
<path d="M5020 5210 c-12 -7 -10 -9 7 -7 12 0 19 5 17 9 -6 10 -6 10 -24 -2z"/>
<path d="M4875 5201 c-3 -5 -2 -12 3 -15 5 -3 9 1 9 9 0 17 -3 19 -12 6z"/>
<path d="M4310 5196 c0 -2 7 -7 16 -10 8 -3 12 -2 9 4 -6 10 -25 14 -25 6z"/>
<path d="M4656 5183 c-6 -14 -5 -15 5 -6 7 7 10 15 7 18 -3 3 -9 -2 -12 -12z"/>
<path d="M4775 5191 c-3 -5 -2 -12 3 -15 5 -3 9 1 9 9 0 17 -3 19 -12 6z"/>
<path d="M4904 5192 c4 -3 14 -7 22 -8 9 -1 13 0 10 4 -4 3 -14 7 -22 8 -9 1
-13 0 -10 -4z"/>
<path d="M4990 5191 c0 -6 4 -13 10 -16 6 -3 7 1 4 9 -7 18 -14 21 -14 7z"/>
<path d="M5195 5170 c-3 -5 -1 -10 4 -10 6 0 11 5 11 10 0 6 -2 10 -4 10 -3 0
-8 -4 -11 -10z"/>
<path d="M3567 5151 c-3 -13 -1 -18 9 -14 7 2 10 11 7 19 -7 19 -10 18 -16 -5z"/>
<path d="M5286 5128 c3 -5 10 -6 15 -3 13 9 11 12 -6 12 -8 0 -12 -4 -9 -9z"/>
<path d="M5336 5128 c3 -5 10 -6 15 -3 13 9 11 12 -6 12 -8 0 -12 -4 -9 -9z"/>
<path d="M5415 5090 c3 -5 8 -10 11 -10 2 0 4 5 4 10 0 6 -5 10 -11 10 -5 0
-7 -4 -4 -10z"/>
<path d="M3529 5033 c-13 -16 -12 -17 4 -4 16 13 21 21 13 21 -2 0 -10 -8 -17
-17z"/>
<path d="M3575 5030 c-3 -5 -1 -10 4 -10 6 0 11 5 11 10 0 6 -2 10 -4 10 -3 0
-8 -4 -11 -10z"/>
<path d="M5475 5030 c3 -5 8 -10 11 -10 2 0 4 5 4 10 0 6 -5 10 -11 10 -5 0
-7 -4 -4 -10z"/>
<path d="M5470 5006 c0 -2 8 -10 18 -17 15 -13 16 -12 3 4 -13 16 -21 21 -21
13z"/>
<path d="M3615 4990 c-3 -5 -1 -10 4 -10 6 0 11 5 11 10 0 6 -2 10 -4 10 -3 0
-8 -4 -11 -10z"/>
<path d="M5627 4989 c7 -7 15 -10 18 -7 3 3 -2 9 -12 12 -14 6 -15 5 -6 -5z"/>
<path d="M5590 4916 c0 -2 7 -7 16 -10 8 -3 12 -2 9 4 -6 10 -25 14 -25 6z"/>
<path d="M5633 4905 c0 -8 4 -12 9 -9 5 3 6 10 3 15 -9 13 -12 11 -12 -6z"/>
<path d="M5660 4915 c0 -2 6 -8 13 -14 10 -8 14 -7 14 2 0 8 -6 14 -14 14 -7
0 -13 -1 -13 -2z"/>
<path d="M3610 4889 c0 -5 5 -7 10 -4 6 3 10 8 10 11 0 2 -4 4 -10 4 -5 0 -10
-5 -10 -11z"/>
<path d="M5730 4869 c0 -5 5 -7 10 -4 6 3 10 8 10 11 0 2 -4 4 -10 4 -5 0 -10
-5 -10 -11z"/>
<path d="M5775 4870 c-3 -5 -1 -10 4 -10 6 0 11 5 11 10 0 6 -2 10 -4 10 -3 0
-8 -4 -11 -10z"/>
<path d="M3235 4831 c-3 -5 -2 -12 3 -15 5 -3 9 1 9 9 0 17 -3 19 -12 6z"/>
<path d="M3596 4797 c3 -10 9 -15 12 -12 3 3 0 11 -7 18 -10 9 -11 8 -5 -6z"/>
<path d="M5830 4796 c0 -2 7 -7 16 -10 8 -3 12 -2 9 4 -6 10 -25 14 -25 6z"/>
<path d="M5816 4772 c-3 -5 1 -9 9 -9 8 0 12 4 9 9 -3 4 -7 8 -9 8 -2 0 -6 -4
-9 -8z"/>
<path d="M2526 4748 c3 -5 10 -6 15 -3 13 9 11 12 -6 12 -8 0 -12 -4 -9 -9z"/>
<path d="M2115 4729 c-3 -4 2 -6 10 -5 21 3 28 13 10 13 -9 0 -18 -4 -20 -8z"/>
<path d="M2215 4730 c-3 -5 -1 -10 4 -10 6 0 11 5 11 10 0 6 -2 10 -4 10 -3 0
-8 -4 -11 -10z"/>
<path d="M2370 4730 c0 -5 5 -10 11 -10 5 0 7 5 4 10 -3 6 -8 10 -11 10 -2 0
-4 -4 -4 -10z"/>
<path d="M2695 4731 c-3 -5 -2 -12 3 -15 5 -3 9 1 9 9 0 17 -3 19 -12 6z"/>
<path d="M3595 4729 c-3 -4 2 -6 10 -5 21 3 28 13 10 13 -9 0 -18 -4 -20 -8z"/>
<path d="M2516 4717 c3 -10 9 -15 12 -12 3 3 0 11 -7 18 -10 9 -11 8 -5 -6z"/>
<path d="M2403 4708 c-5 -9 -38 -13 -103 -13 -155 0 -285 -14 -397 -43 -39
-10 -70 -15 -67 -11 2 4 -8 1 -23 -6 -16 -8 -40 -16 -54 -19 -15 -2 -35 -9
-45 -14 -11 -6 -39 -18 -64 -27 -25 -9 -53 -21 -63 -26 -10 -5 -23 -7 -29 -3
-6 4 -8 3 -5 -3 4 -6 -10 -18 -31 -27 -51 -23 -98 -52 -129 -81 -15 -13 -30
-22 -35 -19 -4 3 -8 -2 -8 -11 0 -8 -11 -20 -24 -26 -28 -13 -27 -43 0 -64 10
-7 15 -19 11 -28 -3 -9 -1 -19 5 -23 7 -4 8 -3 4 4 -17 28 15 9 40 -23 15 -20
42 -52 60 -72 18 -20 31 -40 28 -45 -3 -4 2 -8 11 -8 11 0 15 -5 12 -15 -4 -8
-1 -17 5 -21 7 -5 8 -2 3 7 -4 8 9 -3 29 -24 36 -37 46 -55 24 -41 -7 4 -8 3
-4 -5 4 -6 11 -9 16 -6 4 3 25 -17 46 -43 21 -26 43 -50 48 -54 6 -4 5 -12 -2
-21 -9 -11 -9 -14 3 -14 8 0 12 4 9 9 -3 4 0 8 5 8 6 0 11 -5 11 -11 0 -7 11
-22 26 -35 14 -13 21 -24 17 -24 -4 0 1 -6 11 -12 15 -8 22 -7 31 5 7 9 15 13
19 9 4 -4 6 -2 4 4 -5 19 42 76 58 70 9 -4 12 -2 8 5 -3 6 9 24 27 40 34 30
56 38 43 17 -4 -8 -3 -10 2 -5 5 5 9 13 9 18 0 12 71 51 118 64 4 2 8 3 10 5
5 4 102 20 132 21 68 4 175 -21 175 -41 0 -5 5 -10 11 -10 18 0 56 -50 64 -84
11 -47 12 -105 2 -99 -5 3 -6 -4 -2 -16 7 -24 -4 -27 -26 -9 -7 7 -7 4 3 -6
13 -15 14 -24 6 -47 -5 -16 -14 -26 -19 -23 -5 3 -9 0 -9 -6 0 -6 -4 -8 -10
-5 -6 3 -7 -1 -4 -9 4 -11 0 -16 -10 -16 -9 0 -16 -5 -16 -11 0 -6 -7 -8 -16
-5 -8 3 -12 2 -9 -4 3 -5 -12 -18 -33 -29 -30 -15 -42 -17 -51 -8 -10 9 -12 9
-9 -2 2 -7 -3 -16 -11 -19 -9 -3 -11 0 -7 9 4 8 0 5 -8 -5 -9 -11 -16 -16 -16
-12 0 5 -6 4 -12 -1 -17 -14 -49 -12 -41 1 3 6 0 5 -8 -1 -19 -19 -31 -16 -24
6 3 11 0 23 -6 27 -8 4 -9 3 -5 -4 8 -14 -11 -55 -23 -48 -4 3 -34 6 -67 7
-97 2 -107 1 -100 -16 3 -8 1 -15 -5 -15 -6 0 -7 -5 -3 -12 12 -19 11 -197 -1
-190 -6 3 -6 0 1 -9 12 -17 12 -48 0 -68 -7 -11 -6 -12 5 -6 11 7 12 6 2 -6
-10 -12 -10 -18 -1 -27 9 -9 9 -12 0 -12 -7 0 -12 -5 -12 -11 0 -5 4 -8 8 -5
4 2 8 -31 7 -74 -1 -52 3 -76 10 -72 19 12 47 13 39 1 -4 -8 -1 -8 12 -2 23
11 34 11 53 -1 9 -6 12 -5 8 1 -12 19 206 1 231 -19 9 -7 13 -8 9 -2 -4 7 2
10 18 6 14 -2 25 -8 25 -13 0 -5 6 -6 13 -3 17 6 105 -41 134 -73 23 -24 23
-50 1 -37 -7 4 -8 2 -4 -4 4 -6 13 -9 21 -6 18 7 30 -22 38 -94 5 -40 3 -51
-6 -45 -8 5 -8 2 1 -9 10 -13 10 -17 -2 -21 -7 -3 -18 -1 -23 4 -6 6 -10 4
-10 -5 0 -8 8 -13 19 -11 10 2 18 -2 18 -9 0 -21 -12 -27 -29 -14 -10 8 -9 4
3 -10 11 -12 14 -22 8 -22 -7 0 -11 -4 -10 -9 5 -15 -42 -71 -58 -71 -8 0 -12
-4 -9 -10 3 -5 -3 -10 -14 -10 -12 0 -21 -4 -21 -10 0 -5 -5 -10 -11 -10 -5 0
-7 6 -3 13 4 6 -2 4 -13 -5 -11 -10 -33 -19 -49 -20 -16 -1 -33 -4 -39 -7 -19
-10 -35 -9 -35 2 0 7 -5 5 -10 -3 -9 -13 -10 -13 -10 0 0 9 -3 11 -8 4 -10
-14 -144 -15 -135 0 5 8 3 8 -8 0 -13 -9 -26 -11 -46 -4 -5 1 -15 3 -23 4 -64
7 -109 20 -103 29 3 6 1 7 -6 3 -18 -12 -143 40 -162 67 -3 5 -9 8 -13 8 -18
-3 -26 1 -54 27 l-30 28 -38 -53 c-21 -29 -42 -53 -47 -53 -4 0 -5 -4 -2 -10
3 -5 1 -10 -4 -10 -6 0 -11 -6 -11 -13 0 -7 -14 -28 -32 -47 -17 -19 -31 -37
-31 -40 1 -3 -5 -16 -13 -30 -7 -14 -13 -20 -14 -15 0 6 -6 -1 -13 -15 -8 -14
-19 -24 -26 -22 -7 1 -10 -2 -6 -8 3 -5 -13 -37 -37 -71 -24 -34 -48 -70 -54
-80 -6 -10 -18 -27 -27 -37 -10 -10 -17 -25 -17 -33 0 -17 122 -105 200 -145
30 -15 57 -32 58 -36 2 -5 8 -6 13 -2 5 3 9 0 9 -5 0 -6 3 -10 8 -10 17 3 33
-2 29 -8 -3 -5 9 -9 26 -10 17 -1 34 -7 37 -14 4 -6 10 -10 14 -10 3 1 7 1 9
0 1 0 11 -2 22 -5 11 -2 35 -6 52 -10 19 -4 30 -11 26 -17 -3 -5 -2 -7 4 -4
15 9 197 -24 205 -37 5 -8 8 -7 8 2 0 15 31 12 42 -3 5 -6 8 -5 8 3 0 7 5 10
12 6 13 -8 298 -12 298 -4 0 3 15 6 33 6 45 1 135 13 181 25 21 6 41 8 44 5 3
-3 10 -2 16 3 6 4 34 14 61 21 28 8 61 20 75 27 14 7 33 13 43 13 9 0 17 5 17
12 0 6 3 8 7 5 3 -4 21 3 39 14 19 11 39 17 46 13 7 -4 10 -4 6 1 -9 10 73 66
86 58 5 -3 6 -1 2 6 -4 6 0 14 11 18 10 4 25 15 34 25 9 10 22 18 29 18 7 0
11 3 8 6 -3 3 4 15 16 28 14 15 25 19 34 13 9 -7 11 -5 6 8 -4 11 -2 22 7 29
8 6 19 20 25 31 31 56 40 71 53 88 8 9 11 17 7 17 -4 0 -1 7 8 15 8 9 13 22
10 29 -3 8 -1 17 5 21 6 3 11 16 11 29 0 12 3 26 7 29 7 7 11 36 15 99 2 21 6
38 9 38 3 0 6 7 6 15 0 8 -4 15 -9 15 -5 0 -7 4 -3 10 3 5 13 7 23 3 11 -3 9
1 -6 11 -12 10 -20 22 -16 27 4 7 12 5 23 -3 9 -7 7 -3 -6 9 -23 22 -31 39
-14 29 6 -4 6 5 1 21 -16 49 -35 148 -32 162 2 7 -1 10 -7 6 -7 -4 -11 3 -11
17 0 13 -6 30 -12 37 -7 8 -8 11 -2 8 6 -3 11 1 11 10 0 9 -8 18 -18 20 -10 3
-20 12 -23 20 -4 9 -1 12 7 8 6 -4 4 0 -5 8 -10 8 -18 17 -18 21 0 4 -6 14
-12 21 -7 8 -22 26 -33 41 -18 24 -85 91 -143 144 -14 12 -21 27 -18 36 3 9 2
12 -5 9 -6 -4 -8 -13 -5 -20 3 -9 -14 -4 -45 11 -40 21 -49 29 -44 45 4 11 2
19 -4 19 -6 0 -10 -3 -10 -7 5 -28 -2 -32 -35 -18 -18 8 -36 11 -40 8 -3 -4
-6 -1 -6 6 0 9 9 12 25 9 13 -3 22 -2 20 2 -3 5 2 11 11 14 10 4 13 2 9 -7 -4
-6 -1 -5 7 3 11 12 60 40 95 52 4 2 19 14 34 28 57 55 94 85 102 82 5 -1 6 2
3 7 -4 5 6 23 21 38 16 16 29 32 30 36 8 24 54 107 63 112 6 4 8 10 5 15 -3 5
1 25 9 44 8 19 12 37 8 40 -3 3 -1 6 4 6 9 0 14 41 17 129 1 38 2 41 14 26 7
-10 10 -23 6 -29 -3 -6 -2 -7 3 -3 14 13 11 31 -6 44 -8 6 -15 26 -15 45 -1
18 -4 39 -9 46 -4 7 -2 12 3 12 6 0 11 5 11 11 0 5 -4 8 -8 5 -5 -3 -15 20
-22 51 -8 30 -29 81 -48 112 -19 31 -35 62 -35 69 0 6 -5 12 -10 12 -13 0 -56
47 -49 54 3 3 -2 6 -11 6 -8 0 -19 9 -22 20 -4 11 -11 18 -16 15 -5 -4 -9 1
-9 10 0 9 -4 14 -9 11 -11 -7 -53 29 -44 38 4 4 0 4 -10 0 -10 -3 -17 -1 -17
6 0 6 -4 9 -8 6 -5 -3 -18 2 -28 12 -11 9 -26 18 -34 20 -8 2 -23 13 -33 25
-16 20 -17 21 -11 2 5 -19 5 -19 -9 -3 -8 10 -16 15 -19 13 -3 -3 -18 -1 -34
5 -16 6 -30 11 -32 11 -1 -1 -15 5 -30 12 -15 8 -35 13 -44 12 -10 -2 -18 1
-18 7 0 6 -7 8 -15 4 -8 -3 -27 -1 -42 4 -30 11 -85 18 -147 19 -30 1 -37 4
-32 16 7 18 0 20 -11 3z"/>
<path d="M2947 4709 c7 -7 15 -10 18 -7 3 3 -2 9 -12 12 -14 6 -15 5 -6 -5z"/>
<path d="M2893 4695 c0 -8 4 -12 9 -9 5 3 6 10 3 15 -9 13 -12 11 -12 -6z"/>
<path d="M3613 4695 c0 -8 4 -12 9 -9 5 3 6 10 3 15 -9 13 -12 11 -12 -6z"/>
<path d="M2735 4690 c-3 -5 -1 -10 4 -10 6 0 11 5 11 10 0 6 -2 10 -4 10 -3 0
-8 -4 -11 -10z"/>
<path d="M2775 4690 c3 -5 8 -10 11 -10 2 0 4 5 4 10 0 6 -5 10 -11 10 -5 0
-7 -4 -4 -10z"/>
<path d="M5855 4690 c-3 -5 -1 -10 4 -10 6 0 11 5 11 10 0 6 -2 10 -4 10 -3 0
-8 -4 -11 -10z"/>
<path d="M2830 4686 c0 -2 8 -10 18 -17 15 -13 16 -12 3 4 -13 16 -21 21 -21
13z"/>
<path d="M3075 4679 c-4 -6 -5 -12 -2 -15 2 -3 7 2 10 11 7 17 1 20 -8 4z"/>
<path d="M3573 4661 c0 -11 5 -18 9 -15 4 3 5 11 1 19 -7 21 -12 19 -10 -4z"/>
<path d="M2790 4666 c0 -2 8 -10 18 -17 15 -13 16 -12 3 4 -13 16 -21 21 -21
13z"/>
<path d="M5934 4626 c1 -8 5 -18 8 -22 4 -3 5 1 4 10 -1 8 -5 18 -8 22 -4 3
-5 -1 -4 -10z"/>
<path d="M3099 4618 c-5 -18 -6 -38 -1 -34 7 8 12 36 6 36 -2 0 -4 -1 -5 -2z"/>
<path d="M3574 4606 c1 -8 5 -18 8 -22 4 -3 5 1 4 10 -1 8 -5 18 -8 22 -4 3
-5 -1 -4 -10z"/>
<path d="M2960 4590 c-9 -6 -10 -10 -3 -10 6 0 15 5 18 10 8 12 4 12 -15 0z"/>
<path d="M3015 4590 c-3 -5 -1 -10 4 -10 6 0 11 5 11 10 0 6 -2 10 -4 10 -3 0
-8 -4 -11 -10z"/>
<path d="M3390 4589 c0 -5 5 -7 10 -4 6 3 10 8 10 11 0 2 -4 4 -10 4 -5 0 -10
-5 -10 -11z"/>
<path d="M2910 4586 c0 -2 8 -10 18 -17 15 -13 16 -12 3 4 -13 16 -21 21 -21
13z"/>
<path d="M3030 4555 c0 -5 5 -17 10 -25 5 -8 10 -10 10 -5 0 6 -5 17 -10 25
-5 8 -10 11 -10 5z"/>
<path d="M3113 4535 c0 -8 4 -12 9 -9 5 3 6 10 3 15 -9 13 -12 11 -12 -6z"/>
<path d="M3255 4541 c-3 -5 -2 -12 3 -15 5 -3 9 1 9 9 0 17 -3 19 -12 6z"/>
<path d="M3170 4530 c0 -5 5 -10 11 -10 5 0 7 5 4 10 -3 6 -8 10 -11 10 -2 0
-4 -4 -4 -10z"/>
<path d="M3071 4517 c2 -1 13 -9 24 -17 19 -14 19 -14 6 3 -7 9 -18 17 -24 17
-6 0 -8 -1 -6 -3z"/>
<path d="M3299 4518 c-5 -18 -6 -38 -1 -34 7 8 12 36 6 36 -2 0 -4 -1 -5 -2z"/>
<path d="M3510 4516 c0 -2 7 -7 16 -10 8 -3 12 -2 9 4 -6 10 -25 14 -25 6z"/>
<path d="M3351 4477 c-13 -21 -12 -21 5 -5 10 10 16 20 13 22 -3 3 -11 -5 -18
-17z"/>
<path d="M3570 4490 c0 -5 5 -10 11 -10 5 0 7 5 4 10 -3 6 -8 10 -11 10 -2 0
-4 -4 -4 -10z"/>
<path d="M5946 4492 c-3 -5 1 -9 9 -9 8 0 12 4 9 9 -3 4 -7 8 -9 8 -2 0 -6 -4
-9 -8z"/>
<path d="M3153 4473 c4 -3 1 -13 -6 -22 -11 -14 -10 -14 5 -2 16 12 16 31 1
31 -4 0 -3 -3 0 -7z"/>
<path d="M3184 4472 c4 -3 14 -7 22 -8 9 -1 13 0 10 4 -4 3 -14 7 -22 8 -9 1
-13 0 -10 -4z"/>
<path d="M3104 4441 c0 -11 5 -17 13 -14 10 4 11 9 2 19 -15 18 -15 18 -15 -5z"/>
<path d="M3293 4439 c-2 -23 3 -25 10 -4 4 8 3 16 -1 19 -4 3 -9 -4 -9 -15z"/>
<path d="M3495 4450 c3 -5 8 -10 11 -10 2 0 4 5 4 10 0 6 -5 10 -11 10 -5 0
-7 -4 -4 -10z"/>
<path d="M3355 4441 c-3 -5 -2 -12 3 -15 5 -3 9 1 9 9 0 17 -3 19 -12 6z"/>
<path d="M3555 4441 c-3 -5 -2 -12 3 -15 5 -3 9 1 9 9 0 17 -3 19 -12 6z"/>
<path d="M6010 4429 c0 -5 5 -7 10 -4 6 3 10 8 10 11 0 2 -4 4 -10 4 -5 0 -10
-5 -10 -11z"/>
<path d="M3125 4409 c-4 -6 -5 -12 -2 -15 2 -3 7 2 10 11 7 17 1 20 -8 4z"/>
<path d="M3150 4416 c0 -2 7 -7 16 -10 8 -3 12 -2 9 4 -6 10 -25 14 -25 6z"/>
<path d="M3394 4412 c4 -3 14 -7 22 -8 9 -1 13 0 10 4 -4 3 -14 7 -22 8 -9 1
-13 0 -10 -4z"/>
<path d="M3493 4399 c-2 -23 3 -25 10 -4 4 8 3 16 -1 19 -4 3 -9 -4 -9 -15z"/>
<path d="M3200 4390 c-9 -6 -10 -10 -3 -10 6 0 15 5 18 10 8 12 4 12 -15 0z"/>
<path d="M3315 4390 c-3 -5 -1 -10 4 -10 6 0 11 5 11 10 0 6 -2 10 -4 10 -3 0
-8 -4 -11 -10z"/>
<path d="M6036 4388 c3 -5 10 -6 15 -3 13 9 11 12 -6 12 -8 0 -12 -4 -9 -9z"/>
<path d="M3230 4376 c0 -2 7 -7 16 -10 8 -3 12 -2 9 4 -6 10 -25 14 -25 6z"/>
<path d="M3535 4370 c-3 -5 -1 -10 4 -10 6 0 11 5 11 10 0 6 -2 10 -4 10 -3 0
-8 -4 -11 -10z"/>
<path d="M3166 4351 c-3 -5 1 -11 9 -14 9 -4 12 -1 8 9 -6 16 -10 17 -17 5z"/>
<path d="M3310 4356 c0 -2 7 -7 16 -10 8 -3 12 -2 9 4 -6 10 -25 14 -25 6z"/>
<path d="M3238 4321 c5 -13 3 -14 -9 -4 -12 10 -15 8 -15 -6 0 -12 5 -17 15
-13 8 3 12 1 8 -5 -3 -5 1 -10 9 -10 10 0 11 4 5 10 -6 6 -7 17 -1 27 6 12 5
17 -5 17 -8 0 -11 -7 -7 -16z"/>
<path d="M3276 4332 c-3 -5 1 -9 9 -9 8 0 12 4 9 9 -3 4 -7 8 -9 8 -2 0 -6 -4
-9 -8z"/>
<path d="M3375 4330 c-3 -5 -1 -10 4 -10 6 0 11 5 11 10 0 6 -2 10 -4 10 -3 0
-8 -4 -11 -10z"/>
<path d="M3406 4328 c3 -5 10 -6 15 -3 13 9 11 12 -6 12 -8 0 -12 -4 -9 -9z"/>
<path d="M3530 4330 c0 -5 5 -10 11 -10 5 0 7 5 4 10 -3 6 -8 10 -11 10 -2 0
-4 -4 -4 -10z"/>
<path d="M3370 4289 c0 -5 5 -7 10 -4 6 3 10 8 10 11 0 2 -4 4 -10 4 -5 0 -10
-5 -10 -11z"/>
<path d="M3415 4290 c-3 -5 -1 -10 4 -10 6 0 11 5 11 10 0 6 -2 10 -4 10 -3 0
-8 -4 -11 -10z"/>
<path d="M3450 4290 c0 -5 5 -10 11 -10 5 0 7 5 4 10 -3 6 -8 10 -11 10 -2 0
-4 -4 -4 -10z"/>
<path d="M3535 4290 c3 -5 8 -10 11 -10 2 0 4 5 4 10 0 6 -5 10 -11 10 -5 0
-7 -4 -4 -10z"/>
<path d="M3570 4289 c0 -5 5 -7 10 -4 6 3 10 8 10 11 0 2 -4 4 -10 4 -5 0 -10
-5 -10 -11z"/>
<path d="M6193 4235 c0 -8 4 -12 9 -9 5 3 6 10 3 15 -9 13 -12 11 -12 -6z"/>
<path d="M3313 4225 c0 -8 4 -12 9 -9 5 3 6 10 3 15 -9 13 -12 11 -12 -6z"/>
<path d="M6060 4235 c0 -2 6 -8 13 -14 10 -8 14 -7 14 2 0 8 -6 14 -14 14 -7
0 -13 -1 -13 -2z"/>
<path d="M3233 4217 c0 -8 6 -14 14 -14 9 0 10 4 2 14 -6 7 -12 13 -14 13 -1
0 -2 -6 -2 -13z"/>
<path d="M3280 4210 c-9 -6 -10 -10 -3 -10 6 0 15 5 18 10 8 12 4 12 -15 0z"/>
<path d="M3455 4210 c-3 -5 -1 -10 4 -10 6 0 11 5 11 10 0 6 -2 10 -4 10 -3 0
-8 -4 -11 -10z"/>
<path d="M3296 4183 c-6 -14 -5 -15 5 -6 7 7 10 15 7 18 -3 3 -9 -2 -12 -12z"/>
<path d="M3280 4130 c-9 -6 -10 -10 -3 -10 6 0 15 5 18 10 8 12 4 12 -15 0z"/>
<path d="M3313 4133 c4 -3 1 -13 -6 -22 -11 -14 -10 -14 5 -2 16 12 16 31 1
31 -4 0 -3 -3 0 -7z"/>
<path d="M6096 4128 c3 -5 10 -6 15 -3 13 9 11 12 -6 12 -8 0 -12 -4 -9 -9z"/>
<path d="M3590 4126 c0 -2 8 -10 18 -17 15 -13 16 -12 3 4 -13 16 -21 21 -21
13z"/>
<path d="M3436 4103 c-6 -14 -5 -15 5 -6 7 7 10 15 7 18 -3 3 -9 -2 -12 -12z"/>
<path d="M3294 4079 c-3 -6 -2 -15 3 -20 5 -5 9 -1 9 11 0 23 -2 24 -12 9z"/>
<path d="M2214 4046 c1 -8 5 -18 8 -22 4 -3 5 1 4 10 -1 8 -5 18 -8 22 -4 3
-5 -1 -4 -10z"/>
<path d="M3410 4050 c0 -5 5 -10 11 -10 5 0 7 5 4 10 -3 6 -8 10 -11 10 -2 0
-4 -4 -4 -10z"/>
<path d="M3455 4049 c-3 -4 2 -6 10 -5 21 3 28 13 10 13 -9 0 -18 -4 -20 -8z"/>
<path d="M2095 4030 c3 -5 8 -10 11 -10 2 0 4 5 4 10 0 6 -5 10 -11 10 -5 0
-7 -4 -4 -10z"/>
<path d="M3314 4018 l-19 -23 23 19 c12 11 22 21 22 23 0 8 -8 2 -26 -19z"/>
<path d="M1496 4012 c-3 -5 1 -9 9 -9 8 0 12 4 9 9 -3 4 -7 8 -9 8 -2 0 -6 -4
-9 -8z"/>
<path d="M2010 4009 c0 -5 5 -7 10 -4 6 3 10 8 10 11 0 2 -4 4 -10 4 -5 0 -10
-5 -10 -11z"/>
<path d="M2056 4012 c-3 -5 1 -9 9 -9 8 0 12 4 9 9 -3 4 -7 8 -9 8 -2 0 -6 -4
-9 -8z"/>
<path d="M2296 4012 c-3 -5 1 -9 9 -9 8 0 12 4 9 9 -3 4 -7 8 -9 8 -2 0 -6 -4
-9 -8z"/>
<path d="M1573 3981 c0 -11 5 -18 9 -15 4 3 5 11 1 19 -7 21 -12 19 -10 -4z"/>
<path d="M2415 3970 c3 -5 8 -10 11 -10 2 0 4 5 4 10 0 6 -5 10 -11 10 -5 0
-7 -4 -4 -10z"/>
<path d="M3446 3968 c3 -5 10 -6 15 -3 13 9 11 12 -6 12 -8 0 -12 -4 -9 -9z"/>
<path d="M3496 3968 c3 -5 10 -6 15 -3 13 9 11 12 -6 12 -8 0 -12 -4 -9 -9z"/>
<path d="M3534 3966 c1 -8 5 -18 8 -22 4 -3 5 1 4 10 -1 8 -5 18 -8 22 -4 3
-5 -1 -4 -10z"/>
<path d="M3290 3951 c0 -6 4 -12 8 -15 5 -3 9 1 9 9 0 8 -4 15 -9 15 -4 0 -8
-4 -8 -9z"/>
<path d="M1553 3935 c0 -8 4 -12 9 -9 5 3 6 10 3 15 -9 13 -12 11 -12 -6z"/>
<path d="M3415 3941 c-3 -5 -2 -12 3 -15 5 -3 9 1 9 9 0 17 -3 19 -12 6z"/>
<path d="M1614 3926 c1 -8 5 -18 8 -22 4 -3 5 1 4 10 -1 8 -5 18 -8 22 -4 3
-5 -1 -4 -10z"/>
<path d="M2334 3932 c4 -3 14 -7 22 -8 9 -1 13 0 10 4 -4 3 -14 7 -22 8 -9 1
-13 0 -10 -4z"/>
<path d="M6095 3929 c-3 -4 2 -6 10 -5 21 3 28 13 10 13 -9 0 -18 -4 -20 -8z"/>
<path d="M1236 3912 c-3 -5 1 -9 9 -9 8 0 12 4 9 9 -3 4 -7 8 -9 8 -2 0 -6 -4
-9 -8z"/>
<path d="M2333 3895 c0 -8 4 -12 9 -9 5 3 6 10 3 15 -9 13 -12 11 -12 -6z"/>
<path d="M1516 3883 c-6 -14 -5 -15 5 -6 7 7 10 15 7 18 -3 3 -9 -2 -12 -12z"/>
<path d="M2370 3890 c0 -5 5 -10 11 -10 5 0 7 5 4 10 -3 6 -8 10 -11 10 -2 0
-4 -4 -4 -10z"/>
<path d="M2430 3896 c0 -2 7 -7 16 -10 8 -3 12 -2 9 4 -6 10 -25 14 -25 6z"/>
<path d="M3566 3892 c-3 -5 1 -9 9 -9 8 0 12 4 9 9 -3 4 -7 8 -9 8 -2 0 -6 -4
-9 -8z"/>
<path d="M3335 3871 c-3 -5 -2 -12 3 -15 5 -3 9 1 9 9 0 17 -3 19 -12 6z"/>
<path d="M2253 3855 c0 -8 4 -12 9 -9 5 3 6 10 3 15 -9 13 -12 11 -12 -6z"/>
<path d="M3513 3845 c0 -8 4 -12 9 -9 5 3 6 10 3 15 -9 13 -12 11 -12 -6z"/>
<path d="M2399 3818 c-6 -22 -6 -58 0 -58 4 0 7 14 7 30 0 24 -3 39 -7 28z"/>
<path d="M1427 3789 c7 -7 15 -10 18 -7 3 3 -2 9 -12 12 -14 6 -15 5 -6 -5z"/>
<path d="M2210 3789 c0 -5 5 -7 10 -4 6 3 10 8 10 11 0 2 -4 4 -10 4 -5 0 -10
-5 -10 -11z"/>
<path d="M2326 3792 c-3 -5 1 -9 9 -9 8 0 12 4 9 9 -3 4 -7 8 -9 8 -2 0 -6 -4
-9 -8z"/>
<path d="M3274 3772 c4 -3 14 -7 22 -8 9 -1 13 0 10 4 -4 3 -14 7 -22 8 -9 1
-13 0 -10 -4z"/>
<path d="M3615 3770 c3 -5 8 -10 11 -10 2 0 4 5 4 10 0 6 -5 10 -11 10 -5 0
-7 -4 -4 -10z"/>
<path d="M1950 3749 c0 -5 5 -7 10 -4 6 3 10 8 10 11 0 2 -4 4 -10 4 -5 0 -10
-5 -10 -11z"/>
<path d="M2185 3750 c-3 -6 1 -7 9 -4 18 7 21 14 7 14 -6 0 -13 -4 -16 -10z"/>
<path d="M2295 3750 c-3 -5 -1 -10 4 -10 6 0 11 5 11 10 0 6 -2 10 -4 10 -3 0
-8 -4 -11 -10z"/>
<path d="M2135 3729 c-3 -4 2 -6 10 -5 21 3 28 13 10 13 -9 0 -18 -4 -20 -8z"/>
<path d="M2319 3723 c-13 -16 -12 -17 4 -4 16 13 21 21 13 21 -2 0 -10 -8 -17
-17z"/>
<path d="M3275 3730 c-3 -5 -1 -10 4 -10 6 0 11 5 11 10 0 6 -2 10 -4 10 -3 0
-8 -4 -11 -10z"/>
<path d="M3614 3726 c1 -8 5 -18 8 -22 4 -3 5 1 4 10 -1 8 -5 18 -8 22 -4 3
-5 -1 -4 -10z"/>
<path d="M2040 3710 c-9 -6 -10 -10 -3 -10 6 0 15 5 18 10 8 12 4 12 -15 0z"/>
<path d="M2260 3716 c0 -2 8 -10 18 -17 15 -13 16 -12 3 4 -13 16 -21 21 -21
13z"/>
<path d="M2340 3710 c-9 -6 -10 -10 -3 -10 6 0 15 5 18 10 8 12 4 12 -15 0z"/>
<path d="M3230 3716 c0 -2 7 -7 16 -10 8 -3 12 -2 9 4 -6 10 -25 14 -25 6z"/>
<path d="M2309 3687 c6 -8 7 -18 3 -22 -4 -5 -1 -5 6 -1 10 6 10 11 1 22 -6 8
-14 14 -16 14 -3 0 0 -6 6 -13z"/>
<path d="M2126 3672 c-3 -5 1 -9 9 -9 8 0 12 4 9 9 -3 4 -7 8 -9 8 -2 0 -6 -4
-9 -8z"/>
<path d="M2173 3665 c0 -8 4 -12 9 -9 5 3 6 10 3 15 -9 13 -12 11 -12 -6z"/>
<path d="M3185 3670 c-3 -6 1 -7 9 -4 18 7 21 14 7 14 -6 0 -13 -4 -16 -10z"/>
<path d="M3596 3663 c-6 -14 -5 -15 5 -6 7 7 10 15 7 18 -3 3 -9 -2 -12 -12z"/>
<path d="M2006 3652 c-3 -5 1 -9 9 -9 8 0 12 4 9 9 -3 4 -7 8 -9 8 -2 0 -6 -4
-9 -8z"/>
<path d="M2200 3645 c-7 -8 -16 -12 -21 -9 -5 3 -9 0 -9 -5 0 -17 15 -13 35 9
10 11 16 20 13 20 -3 0 -11 -7 -18 -15z"/>
<path d="M3216 3648 c3 -5 10 -6 15 -3 13 9 11 12 -6 12 -8 0 -12 -4 -9 -9z"/>
<path d="M2055 3630 c-3 -5 -1 -10 4 -10 6 0 11 5 11 10 0 6 -2 10 -4 10 -3 0
-8 -4 -11 -10z"/>
<path d="M3246 3592 c-3 -5 1 -9 9 -9 8 0 12 4 9 9 -3 4 -7 8 -9 8 -2 0 -6 -4
-9 -8z"/>
<path d="M6116 3588 c3 -5 10 -6 15 -3 13 9 11 12 -6 12 -8 0 -12 -4 -9 -9z"/>
<path d="M3616 3531 c-3 -5 2 -15 12 -22 15 -12 16 -12 5 2 -7 9 -10 19 -6 22
3 4 4 7 0 7 -3 0 -8 -4 -11 -9z"/>
<path d="M3190 3526 c0 -2 8 -10 18 -17 15 -13 16 -12 3 4 -13 16 -21 21 -21
13z"/>
<path d="M1893 3501 c0 -11 5 -18 9 -15 4 3 5 11 1 19 -7 21 -12 19 -10 -4z"/>
<path d="M3135 3501 c-3 -5 -2 -12 3 -15 5 -3 9 1 9 9 0 17 -3 19 -12 6z"/>
<path d="M3094 3486 c1 -8 5 -18 8 -22 4 -3 5 1 4 10 -1 8 -5 18 -8 22 -4 3
-5 -1 -4 -10z"/>
<path d="M3310 3470 c0 -5 5 -10 11 -10 5 0 7 5 4 10 -3 6 -8 10 -11 10 -2 0
-4 -4 -4 -10z"/>
<path d="M3565 3470 c-3 -6 1 -7 9 -4 18 7 21 14 7 14 -6 0 -13 -4 -16 -10z"/>
<path d="M3155 3450 c3 -5 8 -10 11 -10 2 0 4 5 4 10 0 6 -5 10 -11 10 -5 0
-7 -4 -4 -10z"/>
<path d="M3613 3453 c4 -3 1 -13 -6 -22 -11 -14 -10 -14 5 -2 16 12 16 31 1
31 -4 0 -3 -3 0 -7z"/>
<path d="M3173 3415 c0 -8 4 -12 9 -9 5 3 6 10 3 15 -9 13 -12 11 -12 -6z"/>
<path d="M1874 3412 c4 -3 14 -7 22 -8 9 -1 13 0 10 4 -4 3 -14 7 -22 8 -9 1
-13 0 -10 -4z"/>
<path d="M2916 3397 c3 -10 9 -15 12 -12 3 3 0 11 -7 18 -10 9 -11 8 -5 -6z"/>
<path d="M3116 3397 c3 -10 9 -15 12 -12 3 3 0 11 -7 18 -10 9 -11 8 -5 -6z"/>
<path d="M2986 3388 c3 -5 10 -6 15 -3 13 9 11 12 -6 12 -8 0 -12 -4 -9 -9z"/>
<path d="M3619 3398 c-5 -18 -6 -38 -1 -34 7 8 12 36 6 36 -2 0 -4 -1 -5 -2z"/>
<path d="M2944 3372 c4 -3 14 -7 22 -8 9 -1 13 0 10 4 -4 3 -14 7 -22 8 -9 1
-13 0 -10 -4z"/>
<path d="M3026 3372 c-3 -5 1 -9 9 -9 8 0 12 4 9 9 -3 4 -7 8 -9 8 -2 0 -6 -4
-9 -8z"/>
<path d="M1856 3337 c3 -10 9 -15 12 -12 3 3 0 11 -7 18 -10 9 -11 8 -5 -6z"/>
<path d="M3256 3328 c3 -5 10 -6 15 -3 13 9 11 12 -6 12 -8 0 -12 -4 -9 -9z"/>
<path d="M3015 3319 c-4 -6 -5 -12 -2 -15 2 -3 7 2 10 11 7 17 1 20 -8 4z"/>
<path d="M3049 3314 c-11 -14 -24 -52 -14 -42 2 1 3 6 2 9 -1 4 7 16 17 28 11
12 17 21 14 21 -3 0 -12 -7 -19 -16z"/>
<path d="M3370 3316 c0 -2 7 -7 16 -10 8 -3 12 -2 9 4 -6 10 -25 14 -25 6z"/>
<path d="M3074 3301 c4 -5 0 -11 -6 -14 -7 -3 -3 -4 9 -4 17 1 19 4 11 14 -12
15 -22 18 -14 4z"/>
<path d="M3416 3292 c-3 -5 1 -9 9 -9 8 0 12 4 9 9 -3 4 -7 8 -9 8 -2 0 -6 -4
-9 -8z"/>
<path d="M1830 3250 c0 -5 5 -10 11 -10 5 0 7 5 4 10 -3 6 -8 10 -11 10 -2 0
-4 -4 -4 -10z"/>
<path d="M3334 3246 c1 -8 5 -18 8 -22 4 -3 5 1 4 10 -1 8 -5 18 -8 22 -4 3
-5 -1 -4 -10z"/>
<path d="M3366 3248 c3 -5 10 -6 15 -3 13 9 11 12 -6 12 -8 0 -12 -4 -9 -9z"/>
<path d="M3414 3252 c4 -3 14 -7 22 -8 9 -1 13 0 10 4 -4 3 -14 7 -22 8 -9 1
-13 0 -10 -4z"/>
<path d="M3475 3250 c-3 -5 -1 -10 4 -10 6 0 11 5 11 10 0 6 -2 10 -4 10 -3 0
-8 -4 -11 -10z"/>
<path d="M1866 3232 c-3 -5 1 -9 9 -9 8 0 12 4 9 9 -3 4 -7 8 -9 8 -2 0 -6 -4
-9 -8z"/>
<path d="M3091 3224 c0 -11 3 -14 6 -6 3 7 2 16 -1 19 -3 4 -6 -2 -5 -13z"/>
<path d="M3206 3228 c3 -5 10 -6 15 -3 13 9 11 12 -6 12 -8 0 -12 -4 -9 -9z"/>
<path d="M3150 3210 c0 -5 5 -10 10 -10 6 0 10 5 10 10 0 6 -4 10 -10 10 -5 0
-10 -4 -10 -10z"/>
<path d="M3610 3209 c0 -5 5 -7 10 -4 6 3 10 8 10 11 0 2 -4 4 -10 4 -5 0 -10
-5 -10 -11z"/>
<path d="M3209 3193 c-13 -16 -12 -17 4 -4 16 13 21 21 13 21 -2 0 -10 -8 -17
-17z"/>
<path d="M3136 3182 c-2 -4 4 -8 14 -8 10 0 16 4 14 8 -3 4 -9 8 -14 8 -5 0
-11 -4 -14 -8z"/>
<path d="M3231 3177 c-8 -10 -7 -14 2 -14 8 0 14 6 14 14 0 7 -1 13 -2 13 -2
0 -8 -6 -14 -13z"/>
<path d="M1850 3169 c0 -5 5 -7 10 -4 6 3 10 8 10 11 0 2 -4 4 -10 4 -5 0 -10
-5 -10 -11z"/>
<path d="M3414 3166 c1 -8 5 -18 8 -22 4 -3 5 1 4 10 -1 8 -5 18 -8 22 -4 3
-5 -1 -4 -10z"/>
<path d="M3535 3169 c-3 -4 2 -6 10 -5 21 3 28 13 10 13 -9 0 -18 -4 -20 -8z"/>
<path d="M3610 3170 c0 -5 5 -10 11 -10 5 0 7 5 4 10 -3 6 -8 10 -11 10 -2 0
-4 -4 -4 -10z"/>
<path d="M3195 3160 c-4 -6 -11 -8 -16 -5 -5 4 -9 2 -9 -4 0 -5 8 -9 18 -8 10
0 19 7 19 14 0 16 -4 16 -12 3z"/>
<path d="M3353 3155 c0 -8 4 -12 9 -9 5 3 6 10 3 15 -9 13 -12 11 -12 -6z"/>
<path d="M1850 3130 c0 -5 5 -10 11 -10 5 0 7 5 4 10 -3 6 -8 10 -11 10 -2 0
-4 -4 -4 -10z"/>
<path d="M1890 3130 c0 -5 5 -10 11 -10 5 0 7 5 4 10 -3 6 -8 10 -11 10 -2 0
-4 -4 -4 -10z"/>
<path d="M1726 3112 c-3 -5 1 -9 9 -9 8 0 12 4 9 9 -3 4 -7 8 -9 8 -2 0 -6 -4
-9 -8z"/>
<path d="M3290 3110 c0 -5 5 -10 11 -10 5 0 7 5 4 10 -3 6 -8 10 -11 10 -2 0
-4 -4 -4 -10z"/>
<path d="M1815 3089 c-3 -4 2 -6 10 -5 21 3 28 13 10 13 -9 0 -18 -4 -20 -8z"/>
<path d="M3260 3096 c0 -2 8 -10 18 -17 15 -13 16 -12 3 4 -13 16 -21 21 -21
13z"/>
<path d="M3333 3085 c0 -8 4 -12 9 -9 5 3 6 10 3 15 -9 13 -12 11 -12 -6z"/>
<path d="M3435 3089 c-3 -4 2 -6 10 -5 21 3 28 13 10 13 -9 0 -18 -4 -20 -8z"/>
<path d="M3519 3083 c-12 -16 -12 -17 2 -6 9 7 20 9 24 5 5 -4 5 -1 1 6 -9 16
-11 15 -27 -5z"/>
<path d="M3610 3089 c0 -5 5 -7 10 -4 6 3 10 8 10 11 0 2 -4 4 -10 4 -5 0 -10
-5 -10 -11z"/>
<path d="M3212 3081 c-11 -7 -11 -9 0 -14 9 -3 15 1 15 9 0 8 -1 14 -1 14 -1
0 -7 -4 -14 -9z"/>
<path d="M2013 3055 c0 -8 4 -12 9 -9 5 3 6 10 3 15 -9 13 -12 11 -12 -6z"/>
<path d="M2055 3061 c-3 -5 -2 -12 3 -15 5 -3 9 1 9 9 0 17 -3 19 -12 6z"/>
<path d="M1935 3050 c3 -5 8 -10 11 -10 2 0 4 5 4 10 0 6 -5 10 -11 10 -5 0
-7 -4 -4 -10z"/>
<path d="M2115 3049 c-3 -4 2 -6 10 -5 21 3 28 13 10 13 -9 0 -18 -4 -20 -8z"/>
<path d="M2176 3048 c3 -5 10 -6 15 -3 13 9 11 12 -6 12 -8 0 -12 -4 -9 -9z"/>
<path d="M2219 3058 c-5 -18 -6 -38 -1 -34 7 8 12 36 6 36 -2 0 -4 -1 -5 -2z"/>
<path d="M3284 3046 c-6 -15 -20 -16 -44 -1 -13 8 -13 7 -1 -8 8 -10 16 -15
19 -12 3 3 15 -3 26 -12 12 -10 16 -11 9 -4 -8 10 -9 20 -2 33 5 10 7 18 4 18
-3 0 -8 -6 -11 -14z"/>
<path d="M3319 3058 c-5 -18 -6 -38 -1 -34 7 8 12 36 6 36 -2 0 -4 -1 -5 -2z"/>
<path d="M3509 3033 c-13 -16 -12 -17 4 -4 16 13 21 21 13 21 -2 0 -10 -8 -17
-17z"/>
<path d="M2255 3030 c-3 -5 -1 -10 4 -10 6 0 11 5 11 10 0 6 -2 10 -4 10 -3 0
-8 -4 -11 -10z"/>
<path d="M1875 3009 c-3 -4 2 -6 10 -5 21 3 28 13 10 13 -9 0 -18 -4 -20 -8z"/>
<path d="M2055 3011 c-3 -5 -2 -12 3 -15 5 -3 9 1 9 9 0 17 -3 19 -12 6z"/>
<path d="M3450 3010 c0 -5 5 -10 11 -10 5 0 7 5 4 10 -3 6 -8 10 -11 10 -2 0
-4 -4 -4 -10z"/>
<path d="M3530 3010 c0 -5 5 -10 11 -10 5 0 7 5 4 10 -3 6 -8 10 -11 10 -2 0
-4 -4 -4 -10z"/>
<path d="M3390 3006 c0 -2 8 -10 18 -17 15 -13 16 -12 3 4 -13 16 -21 21 -21
13z"/>
<path d="M2100 2990 c-9 -6 -10 -10 -3 -10 6 0 15 5 18 10 8 12 4 12 -15 0z"/>
<path d="M2206 2992 c-3 -5 1 -9 9 -9 8 0 12 4 9 9 -3 4 -7 8 -9 8 -2 0 -6 -4
-9 -8z"/>
<path d="M1755 2981 c-3 -5 -2 -12 3 -15 5 -3 9 1 9 9 0 17 -3 19 -12 6z"/>
<path d="M2276 2977 c3 -10 9 -15 12 -12 3 3 0 11 -7 18 -10 9 -11 8 -5 -6z"/>
<path d="M3275 2979 c-4 -6 -5 -12 -2 -15 2 -3 7 2 10 11 7 17 1 20 -8 4z"/>
<path d="M2380 2950 c8 -5 20 -10 25 -10 6 0 3 5 -5 10 -8 5 -19 10 -25 10 -5
0 -3 -5 5 -10z"/>
<path d="M3353 2953 c4 -3 1 -13 -6 -22 -11 -14 -10 -14 5 -2 16 12 16 31 1
31 -4 0 -3 -3 0 -7z"/>
<path d="M3295 2940 c-3 -6 1 -7 9 -4 18 7 21 14 7 14 -6 0 -13 -4 -16 -10z"/>
<path d="M1556 2917 c3 -10 9 -15 12 -12 3 3 0 11 -7 18 -10 9 -11 8 -5 -6z"/>
<path d="M1807 2909 c7 -7 15 -10 18 -7 3 3 -2 9 -12 12 -14 6 -15 5 -6 -5z"/>
<path d="M3276 2897 c3 -10 9 -15 12 -12 3 3 0 11 -7 18 -10 9 -11 8 -5 -6z"/>
<path d="M2414 2892 c4 -3 14 -7 22 -8 9 -1 13 0 10 4 -4 3 -14 7 -22 8 -9 1
-13 0 -10 -4z"/>
<path d="M3455 2890 c-3 -5 -1 -10 4 -10 6 0 11 5 11 10 0 6 -2 10 -4 10 -3 0
-8 -4 -11 -10z"/>
<path d="M3539 2898 c-5 -18 -6 -38 -1 -34 7 8 12 36 6 36 -2 0 -4 -1 -5 -2z"/>
<path d="M3325 2870 c-10 -11 -15 -20 -10 -20 4 0 1 -8 -6 -17 -13 -16 -12
-17 4 -4 9 8 15 16 12 19 -3 3 2 14 12 24 9 10 14 18 11 18 -3 0 -13 -9 -23
-20z"/>
<path d="M3349 2853 c-13 -16 -12 -17 4 -4 16 13 21 21 13 21 -2 0 -10 -8 -17
-17z"/>
<path d="M2010 2836 c0 -2 7 -7 16 -10 8 -3 12 -2 9 4 -6 10 -25 14 -25 6z"/>
<path d="M2440 2830 c-9 -6 -10 -10 -3 -10 6 0 15 5 18 10 8 12 4 12 -15 0z"/>
<path d="M2310 2809 c0 -5 5 -7 10 -4 6 3 10 8 10 11 0 2 -4 4 -10 4 -5 0 -10
-5 -10 -11z"/>
<path d="M1495 2790 c3 -5 8 -10 11 -10 2 0 4 5 4 10 0 6 -5 10 -11 10 -5 0
-7 -4 -4 -10z"/>
<path d="M3353 2784 c0 -9 4 -11 12 -4 7 5 14 9 16 7 2 -1 3 0 1 2 -7 11 -29
7 -29 -5z"/>
<path d="M1956 2768 c3 -5 10 -6 15 -3 13 9 11 12 -6 12 -8 0 -12 -4 -9 -9z"/>
<path d="M2200 2770 c-12 -7 -10 -9 7 -7 12 0 19 5 17 9 -6 10 -6 10 -24 -2z"/>
<path d="M3318 2755 c9 -11 18 -21 18 -23 1 -2 1 7 1 20 -1 15 -8 24 -19 24
-16 0 -16 -1 0 -21z"/>
<path d="M3410 2770 c0 -5 5 -10 11 -10 5 0 7 5 4 10 -3 6 -8 10 -11 10 -2 0
-4 -4 -4 -10z"/>
<path d="M3495 2770 c-3 -5 -1 -10 4 -10 6 0 11 5 11 10 0 6 -2 10 -4 10 -3 0
-8 -4 -11 -10z"/>
<path d="M3573 2765 c0 -8 4 -12 9 -9 5 3 6 10 3 15 -9 13 -12 11 -12 -6z"/>
<path d="M1826 2748 c3 -5 10 -6 15 -3 13 9 11 12 -6 12 -8 0 -12 -4 -9 -9z"/>
<path d="M2436 2752 c-3 -5 1 -9 9 -9 8 0 12 4 9 9 -3 4 -7 8 -9 8 -2 0 -6 -4
-9 -8z"/>
<path d="M3350 2755 c0 -7 30 -13 34 -7 3 4 -4 9 -15 9 -10 1 -19 0 -19 -2z"/>
<path d="M2015 2730 c-3 -5 -1 -10 4 -10 6 0 11 5 11 10 0 6 -2 10 -4 10 -3 0
-8 -4 -11 -10z"/>
<path d="M3575 2729 c-3 -4 2 -6 10 -5 21 3 28 13 10 13 -9 0 -18 -4 -20 -8z"/>
<path d="M1839 2725 c-1 -3 -2 -8 -3 -12 -1 -5 -5 -15 -10 -23 -7 -12 -6 -13
4 -3 13 12 23 43 14 43 -2 0 -5 -2 -5 -5z"/>
<path d="M2455 2720 c-4 -6 -11 -7 -17 -4 -7 4 -8 2 -4 -5 6 -9 11 -9 22 0 14
11 18 19 10 19 -3 0 -8 -5 -11 -10z"/>
<path d="M1795 2711 c-3 -5 -2 -12 3 -15 5 -3 9 1 9 9 0 17 -3 19 -12 6z"/>
<path d="M2410 2711 c0 -6 4 -13 10 -16 6 -3 7 1 4 9 -7 18 -14 21 -14 7z"/>
<path d="M1754 2676 c1 -14 4 -28 7 -31 3 -3 5 6 5 19 -1 14 -4 28 -7 31 -3 3
-5 -6 -5 -19z"/>
<path d="M2255 2690 c-3 -5 -1 -10 4 -10 6 0 11 5 11 10 0 6 -2 10 -4 10 -3 0
-8 -4 -11 -10z"/>
<path d="M2465 2690 c-3 -6 1 -7 9 -4 18 7 21 14 7 14 -6 0 -13 -4 -16 -10z"/>
<path d="M3550 2695 c0 -7 30 -13 34 -7 3 4 -4 9 -15 9 -10 1 -19 0 -19 -2z"/>
<path d="M3615 2690 c-3 -5 -1 -10 4 -10 6 0 11 5 11 10 0 6 -2 10 -4 10 -3 0
-8 -4 -11 -10z"/>
<path d="M1954 2675 c1 -8 8 -21 16 -28 12 -10 12 -9 2 4 -6 9 -9 18 -6 21 3
3 1 9 -4 12 -6 3 -9 -1 -8 -9z"/>
<path d="M2324 2672 c23 -26 23 -26 23 -7 0 8 -3 13 -5 10 -3 -3 -12 1 -21 7
-10 8 -9 4 3 -10z"/>
<path d="M2394 2676 c1 -8 5 -18 8 -22 4 -3 5 1 4 10 -1 8 -5 18 -8 22 -4 3
-5 -1 -4 -10z"/>
<path d="M1840 2675 c0 -2 6 -8 13 -14 10 -8 14 -7 14 2 0 8 -6 14 -14 14 -7
0 -13 -1 -13 -2z"/>
<path d="M1785 2650 c-3 -6 1 -7 9 -4 18 7 21 14 7 14 -6 0 -13 -4 -16 -10z"/>
<path d="M1812 2639 c-8 -12 -9 -18 -4 -15 6 3 12 0 15 -6 2 -7 4 -1 4 15 0
15 0 27 -1 27 -1 0 -7 -9 -14 -21z"/>
<path d="M1990 2656 c0 -2 7 -7 16 -10 8 -3 12 -2 9 4 -6 10 -25 14 -25 6z"/>
<path d="M2239 2658 c-7 -23 -4 -35 7 -35 9 0 11 4 4 12 -5 7 -7 15 -3 18 3 4
3 7 0 7 -4 0 -7 -1 -8 -2z"/>
<path d="M2273 2637 c-1 -11 -1 -18 0 -16 2 2 8 11 15 20 9 12 9 16 -1 16 -7
0 -14 -9 -14 -20z"/>
<path d="M3490 2650 c0 -5 5 -10 11 -10 5 0 7 5 4 10 -3 6 -8 10 -11 10 -2 0
-4 -4 -4 -10z"/>
<path d="M3560 2650 c-12 -7 -10 -9 7 -7 12 0 19 5 17 9 -6 10 -6 10 -24 -2z"/>
<path d="M3615 2650 c-3 -5 -1 -10 4 -10 6 0 11 5 11 10 0 6 -2 10 -4 10 -3 0
-8 -4 -11 -10z"/>
<path d="M1890 2646 c0 -2 8 -10 18 -17 15 -13 16 -12 3 4 -13 16 -21 21 -21
13z"/>
<path d="M2374 2631 c0 -11 5 -17 13 -14 10 4 11 9 2 19 -15 18 -15 18 -15 -5z"/>
<path d="M3334 2639 c-3 -6 -2 -15 3 -20 5 -5 9 -1 9 11 0 23 -2 24 -12 9z"/>
<path d="M1857 2625 c-4 -8 -3 -16 1 -19 4 -3 9 4 9 15 2 23 -3 25 -10 4z"/>
<path d="M1950 2630 c0 -5 5 -10 11 -10 5 0 7 5 4 10 -3 6 -8 10 -11 10 -2 0
-4 -4 -4 -10z"/>
<path d="M2160 2636 c0 -2 8 -10 18 -17 15 -13 16 -12 3 4 -13 16 -21 21 -21
13z"/>
<path d="M2410 2628 c0 -3 9 -6 20 -5 11 1 20 5 20 9 0 3 -9 6 -20 5 -11 -1
-20 -5 -20 -9z"/>
<path d="M2152 2604 c9 -11 27 -20 39 -21 23 -2 20 7 -4 11 -8 1 -23 8 -33 16
-18 14 -18 14 -2 -6z"/>
<path d="M3576 2608 c3 -4 11 -5 19 -1 21 7 19 12 -4 10 -11 0 -18 -5 -15 -9z"/>
<path d="M1936 2597 c3 -10 9 -15 12 -12 3 3 0 11 -7 18 -10 9 -11 8 -5 -6z"/>
<path d="M1975 2599 c-4 -6 -5 -12 -2 -15 2 -3 7 2 10 11 7 17 1 20 -8 4z"/>
<path d="M2255 2590 c1 -11 5 -23 10 -27 4 -5 5 -2 0 6 -6 10 -2 12 16 6 13
-4 22 -6 19 -4 -3 2 -14 12 -26 22 -20 16 -21 16 -19 -3z"/>
<path d="M2325 2600 c-16 -7 -17 -9 -3 -9 9 -1 20 4 23 9 7 11 7 11 -20 0z"/>
<path d="M2025 2589 c-4 -6 -5 -12 -2 -15 2 -3 7 2 10 11 7 17 1 20 -8 4z"/>
<path d="M2113 2593 c4 -3 3 -11 -3 -17 -6 -8 -3 -12 9 -12 12 0 17 6 13 18
-2 10 -9 18 -15 18 -6 0 -7 -3 -4 -7z"/>
<path d="M2355 2589 c-4 -6 -5 -12 -2 -15 2 -3 7 2 10 11 7 17 1 20 -8 4z"/>
<path d="M3454 2586 c1 -8 5 -18 8 -22 4 -3 5 1 4 10 -1 8 -5 18 -8 22 -4 3
-5 -1 -4 -10z"/>
<path d="M1997 2583 c-10 -9 -9 -23 1 -23 5 0 9 7 9 15 0 17 -1 18 -10 8z"/>
<path d="M3410 2570 c0 -5 5 -10 11 -10 5 0 7 5 4 10 -3 6 -8 10 -11 10 -2 0
-4 -4 -4 -10z"/>
<path d="M3570 2569 c0 -5 5 -7 10 -4 6 3 10 8 10 11 0 2 -4 4 -10 4 -5 0 -10
-5 -10 -11z"/>
<path d="M1430 2549 c0 -5 5 -7 10 -4 6 3 10 8 10 11 0 2 -4 4 -10 4 -5 0 -10
-5 -10 -11z"/>
<path d="M3305 2530 c-3 -6 1 -7 9 -4 18 7 21 14 7 14 -6 0 -13 -4 -16 -10z"/>
<path d="M3575 2530 c-3 -5 -1 -10 4 -10 6 0 11 5 11 10 0 6 -2 10 -4 10 -3 0
-8 -4 -11 -10z"/>
<path d="M3349 2513 c-13 -16 -12 -17 4 -4 16 13 21 21 13 21 -2 0 -10 -8 -17
-17z"/>
<path d="M3307 2489 c7 -7 15 -10 18 -7 3 3 -2 9 -12 12 -14 6 -15 5 -6 -5z"/>
<path d="M3435 2490 c3 -5 8 -10 11 -10 2 0 4 5 4 10 0 6 -5 10 -11 10 -5 0
-7 -4 -4 -10z"/>
<path d="M3496 2492 c-3 -5 1 -9 9 -9 8 0 12 4 9 9 -3 4 -7 8 -9 8 -2 0 -6 -4
-9 -8z"/>
<path d="M3354 2452 c4 -3 14 -7 22 -8 9 -1 13 0 10 4 -4 3 -14 7 -22 8 -9 1
-13 0 -10 -4z"/>
<path d="M3610 2449 c0 -5 5 -7 10 -4 6 3 10 8 10 11 0 2 -4 4 -10 4 -5 0 -10
-5 -10 -11z"/>
<path d="M3615 2421 c-3 -5 -2 -12 3 -15 5 -3 9 1 9 9 0 17 -3 19 -12 6z"/>
<path d="M3475 2410 c3 -5 8 -10 11 -10 2 0 4 5 4 10 0 6 -5 10 -11 10 -5 0
-7 -4 -4 -10z"/>
<path d="M3694 2406 c1 -8 5 -18 8 -22 4 -3 5 1 4 10 -1 8 -5 18 -8 22 -4 3
-5 -1 -4 -10z"/>
<path d="M3775 2409 c-3 -4 2 -6 10 -5 21 3 28 13 10 13 -9 0 -18 -4 -20 -8z"/>
<path d="M4014 2412 c4 -3 14 -7 22 -8 9 -1 13 0 10 4 -4 3 -14 7 -22 8 -9 1
-13 0 -10 -4z"/>
<path d="M4210 2409 c0 -5 5 -7 10 -4 6 3 10 8 10 11 0 2 -4 4 -10 4 -5 0 -10
-5 -10 -11z"/>
<path d="M4336 2412 c-3 -4 4 -9 15 -9 23 -2 25 3 4 10 -8 4 -16 3 -19 -1z"/>
<path d="M4536 2408 c3 -5 10 -6 15 -3 13 9 11 12 -6 12 -8 0 -12 -4 -9 -9z"/>
<path d="M4776 2412 c-3 -5 1 -9 9 -9 8 0 12 4 9 9 -3 4 -7 8 -9 8 -2 0 -6 -4
-9 -8z"/>
<path d="M3830 2396 c0 -2 7 -7 16 -10 8 -3 12 -2 9 4 -6 10 -25 14 -25 6z"/>
<path d="M4260 2390 c-9 -6 -10 -10 -3 -10 6 0 15 5 18 10 8 12 4 12 -15 0z"/>
<path d="M3286 2368 c3 -5 10 -6 15 -3 13 9 11 12 -6 12 -8 0 -12 -4 -9 -9z"/>
<path d="M4033 2365 c0 -8 4 -12 9 -9 5 3 6 10 3 15 -9 13 -12 11 -12 -6z"/>
<path d="M4135 2371 c-3 -5 -2 -12 3 -15 5 -3 9 1 9 9 0 17 -3 19 -12 6z"/>
<path d="M4350 2370 c0 -5 5 -10 11 -10 5 0 7 5 4 10 -3 6 -8 10 -11 10 -2 0
-4 -4 -4 -10z"/>
<path d="M1310 2366 c0 -2 8 -10 18 -17 15 -13 16 -12 3 4 -13 16 -21 21 -21
13z"/>
<path d="M4509 2353 c-13 -16 -12 -17 4 -4 9 7 17 15 17 17 0 8 -8 3 -21 -13z"/>
<path d="M3254 2346 c1 -8 5 -18 8 -22 4 -3 5 1 4 10 -1 8 -5 18 -8 22 -4 3
-5 -1 -4 -10z"/>
<path d="M4445 2350 c-3 -6 1 -7 9 -4 18 7 21 14 7 14 -6 0 -13 -4 -16 -10z"/>
<path d="M3833 2315 c0 -8 4 -12 9 -9 5 3 6 10 3 15 -9 13 -12 11 -12 -6z"/>
<path d="M4460 2276 c0 -2 8 -10 18 -17 15 -13 16 -12 3 4 -13 16 -21 21 -21
13z"/>
<path d="M1453 2015 c0 -8 4 -12 9 -9 5 3 6 10 3 15 -9 13 -12 11 -12 -6z"/>
<path d="M1526 1928 c3 -5 10 -6 15 -3 13 9 11 12 -6 12 -8 0 -12 -4 -9 -9z"/>
<path d="M1550 1890 c0 -5 5 -10 11 -10 5 0 7 5 4 10 -3 6 -8 10 -11 10 -2 0
-4 -4 -4 -10z"/>
<path d="M1600 1890 c-12 -7 -10 -9 7 -7 12 0 19 5 17 9 -6 10 -6 10 -24 -2z"/>
<path d="M1686 1888 c3 -5 10 -6 15 -3 13 9 11 12 -6 12 -8 0 -12 -4 -9 -9z"/>
<path d="M1735 1890 c3 -5 8 -10 11 -10 2 0 4 5 4 10 0 6 -5 10 -11 10 -5 0
-7 -4 -4 -10z"/>
<path d="M1854 1866 c1 -8 5 -18 8 -22 4 -3 5 1 4 10 -1 8 -5 18 -8 22 -4 3
-5 -1 -4 -10z"/>
<path d="M1926 1852 c-3 -5 1 -9 9 -9 8 0 12 4 9 9 -3 4 -7 8 -9 8 -2 0 -6 -4
-9 -8z"/>
<path d="M2090 1855 c0 -7 30 -13 34 -7 3 4 -4 9 -15 9 -10 1 -19 0 -19 -2z"/>
<path d="M1955 1719 c-4 -6 -5 -12 -2 -15 2 -3 7 2 10 11 7 17 1 20 -8 4z"/>
<path d="M1815 1670 c-3 -5 -1 -10 4 -10 6 0 11 5 11 10 0 6 -2 10 -4 10 -3 0
-8 -4 -11 -10z"/>
</g>
</svg>
