<svg width="12" height="15" viewBox="0 0 12 15" fill="none" xmlns="http://www.w3.org/2000/svg">
<path d="M11.8086 6.32924C11.0315 5.52815 10.0361 4.97319 8.94611 4.7334C8.14587 4.53228 7.32527 4.42324 6.50028 4.4084V2.20007C6.48723 1.82576 6.32648 1.47185 6.05319 1.21574C5.7799 0.959625 5.41632 0.82216 5.04195 0.833403C4.66758 0.82216 4.30399 0.959625 4.0307 1.21574C3.75741 1.47185 3.59666 1.82576 3.58361 2.20007V6.36674L2.91695 5.7084C2.62327 5.42033 2.22832 5.25896 1.81695 5.25896C1.40557 5.25896 1.01062 5.42033 0.716945 5.7084C0.569809 5.85055 0.452693 6.02079 0.372534 6.20902C0.292375 6.39725 0.250803 6.59965 0.250278 6.80424C0.242639 7.2009 0.392458 7.58444 0.666945 7.8709L2.60861 10.1709C2.70229 10.7586 2.90433 11.3237 3.20445 11.8376C3.42372 12.2327 3.70508 12.5901 4.03778 12.8959V13.6959C4.03647 13.81 4.07894 13.9202 4.15645 14.0039C4.23396 14.0876 4.34061 14.1384 4.45445 14.1459H10.2503C10.3641 14.1384 10.4708 14.0876 10.5483 14.0039C10.6258 13.9202 10.6683 13.81 10.6669 13.6959V12.5709C11.4857 11.596 11.929 10.3606 11.9169 9.08757V6.58757C11.9117 6.49154 11.8735 6.40026 11.8086 6.32924ZM11.0836 9.1084C11.1102 10.2162 10.7241 11.2944 10.0003 12.1334C9.9083 12.2083 9.84864 12.3157 9.83361 12.4334V13.3334H4.89195V12.7167C4.89205 12.6485 4.87538 12.5813 4.84342 12.521C4.81145 12.4606 4.76516 12.4091 4.70861 12.3709C4.39635 12.1149 4.13851 11.799 3.95028 11.4417C3.68486 10.9923 3.51467 10.4931 3.45028 9.97507C3.44581 9.88491 3.41218 9.79864 3.35445 9.72924L1.30445 7.30424C1.23768 7.23834 1.18466 7.15985 1.14848 7.0733C1.11229 6.98675 1.09366 6.89388 1.09366 6.80007C1.09366 6.70626 1.11229 6.61339 1.14848 6.52684C1.18466 6.44029 1.23768 6.36179 1.30445 6.2959C1.44164 6.16078 1.62647 6.08505 1.81903 6.08505C2.01159 6.08505 2.19642 6.16078 2.33361 6.2959L3.58361 7.5459V8.85424L4.41695 8.43757V2.20007C4.43177 2.04754 4.5052 1.90671 4.62178 1.80723C4.73835 1.70775 4.88898 1.65738 5.04195 1.66674C5.19491 1.65738 5.34554 1.70775 5.46212 1.80723C5.57869 1.90671 5.65212 2.04754 5.66695 2.20007V7.11674L6.50028 7.2959V5.2459C6.84995 5.2528 7.19903 5.27783 7.54611 5.3209V7.50007L8.21278 7.6459V5.41674C8.38361 5.45007 8.55861 5.48757 8.73778 5.5334C8.9538 5.58993 9.16661 5.65808 9.37528 5.73757V7.8834L10.0419 8.02924V6.04174C10.4207 6.23292 10.7712 6.47549 11.0836 6.76257V9.1084Z" fill="#303030"/>
</svg>
