<?xml version="1.0" encoding="UTF-8"?>
<svg xmlns="http://www.w3.org/2000/svg" xmlns:xlink="http://www.w3.org/1999/xlink" width="24px" height="24px" viewBox="0 0 24 24" version="1.1">
<g id="surface1">
<path style=" stroke:none;fill-rule:nonzero;fill:rgb(0%,0%,0%);fill-opacity:1;" d="M 7.09375 0.117188 C 6.9375 0.195312 6.804688 0.308594 6.722656 0.4375 L 6.585938 0.632812 L 6.570312 2.914062 L 6.558594 5.199219 L 6.382812 5.226562 C 5.84375 5.320312 5.464844 5.558594 5.1875 5.980469 C 4.90625 6.402344 4.921875 5.996094 4.921875 14.585938 C 4.921875 20.117188 4.9375 22.523438 4.972656 22.695312 C 5.0625 23.128906 5.417969 23.609375 5.789062 23.796875 C 6.171875 24 6.136719 24 12 24 C 17.863281 24 17.828125 24 18.210938 23.796875 C 18.582031 23.609375 18.9375 23.128906 19.027344 22.695312 C 19.0625 22.523438 19.078125 20.117188 19.078125 14.585938 C 19.078125 7.648438 19.070312 6.6875 19.007812 6.445312 C 18.851562 5.859375 18.421875 5.429688 17.828125 5.273438 C 17.597656 5.210938 16.882812 5.203125 13.023438 5.203125 L 8.484375 5.203125 L 8.484375 3.09375 C 8.484375 1.804688 8.464844 0.898438 8.4375 0.757812 C 8.34375 0.332031 7.945312 0.00390625 7.519531 0 C 7.410156 0 7.234375 0.0507812 7.09375 0.117188 Z M 17.484375 10.148438 L 17.484375 12.796875 L 6.515625 12.796875 L 6.515625 7.5 L 17.484375 7.5 Z M 9.183594 14.242188 C 9.347656 14.328125 9.515625 14.578125 9.515625 14.734375 C 9.515625 14.890625 9.359375 15.148438 9.214844 15.238281 C 9.085938 15.320312 8.96875 15.328125 8.023438 15.328125 C 7.140625 15.328125 6.957031 15.3125 6.84375 15.253906 C 6.671875 15.144531 6.5625 14.953125 6.5625 14.734375 C 6.5625 14.523438 6.65625 14.371094 6.863281 14.246094 C 6.992188 14.164062 7.105469 14.15625 8.015625 14.15625 C 8.902344 14.15625 9.042969 14.164062 9.183594 14.242188 Z M 13.144531 14.226562 C 13.335938 14.320312 13.460938 14.539062 13.460938 14.769531 C 13.457031 14.976562 13.378906 15.113281 13.1875 15.238281 C 13.070312 15.320312 12.945312 15.328125 12 15.328125 C 11.054688 15.328125 10.929688 15.320312 10.8125 15.238281 C 10.621094 15.113281 10.542969 14.976562 10.539062 14.769531 C 10.539062 14.539062 10.664062 14.320312 10.847656 14.230469 C 11.058594 14.125 12.929688 14.125 13.144531 14.226562 Z M 17.109375 14.226562 C 17.527344 14.441406 17.554688 15.015625 17.15625 15.253906 C 17.042969 15.3125 16.859375 15.328125 15.976562 15.328125 C 14.796875 15.328125 14.714844 15.308594 14.5625 14.984375 C 14.460938 14.773438 14.464844 14.6875 14.570312 14.488281 C 14.734375 14.183594 14.851562 14.15625 15.976562 14.15625 C 16.761719 14.15625 17 14.171875 17.109375 14.226562 Z M 9.109375 16.449219 C 9.28125 16.515625 9.453125 16.726562 9.492188 16.902344 C 9.53125 17.105469 9.421875 17.347656 9.242188 17.480469 C 9.109375 17.574219 9.050781 17.578125 8.039062 17.578125 C 7.140625 17.578125 6.957031 17.5625 6.84375 17.503906 C 6.460938 17.273438 6.46875 16.734375 6.867188 16.496094 C 6.992188 16.414062 7.117188 16.40625 8 16.40625 C 8.546875 16.40625 9.046875 16.425781 9.109375 16.449219 Z M 13.15625 16.5 C 13.363281 16.621094 13.460938 16.796875 13.460938 17.011719 C 13.457031 17.230469 13.351562 17.414062 13.167969 17.511719 C 12.976562 17.609375 11.023438 17.609375 10.832031 17.511719 C 10.648438 17.414062 10.542969 17.230469 10.539062 17.011719 C 10.539062 16.796875 10.636719 16.621094 10.84375 16.5 C 10.976562 16.414062 11.082031 16.40625 12 16.40625 C 12.917969 16.40625 13.023438 16.414062 13.15625 16.5 Z M 17.109375 16.476562 C 17.523438 16.6875 17.546875 17.269531 17.15625 17.503906 C 17.042969 17.570312 16.859375 17.578125 15.945312 17.578125 L 14.863281 17.578125 L 14.703125 17.421875 C 14.488281 17.222656 14.441406 16.988281 14.5625 16.753906 C 14.726562 16.433594 14.839844 16.40625 15.976562 16.40625 C 16.765625 16.40625 17 16.421875 17.109375 16.476562 Z M 9.191406 18.765625 C 9.28125 18.820312 9.390625 18.953125 9.441406 19.050781 C 9.515625 19.199219 9.519531 19.257812 9.472656 19.40625 C 9.445312 19.503906 9.355469 19.640625 9.277344 19.707031 L 9.132812 19.828125 L 8.023438 19.828125 C 7.128906 19.824219 6.894531 19.8125 6.824219 19.757812 C 6.558594 19.554688 6.484375 19.179688 6.660156 18.929688 C 6.839844 18.683594 6.957031 18.660156 8.042969 18.65625 C 8.996094 18.65625 9.039062 18.660156 9.191406 18.765625 Z M 13.097656 18.722656 C 13.332031 18.820312 13.453125 19.003906 13.453125 19.269531 C 13.453125 19.46875 13.429688 19.519531 13.289062 19.664062 L 13.121094 19.828125 L 10.878906 19.828125 L 10.710938 19.664062 C 10.570312 19.519531 10.546875 19.46875 10.546875 19.269531 C 10.546875 19.007812 10.664062 18.824219 10.894531 18.722656 C 11.105469 18.632812 12.882812 18.632812 13.097656 18.722656 Z M 17.082031 18.722656 C 17.503906 18.898438 17.558594 19.46875 17.175781 19.757812 C 17.105469 19.8125 16.871094 19.824219 15.96875 19.828125 L 14.851562 19.828125 L 14.695312 19.671875 C 14.398438 19.378906 14.445312 19.007812 14.8125 18.765625 C 14.960938 18.660156 15.007812 18.65625 15.945312 18.65625 C 16.671875 18.65625 16.964844 18.675781 17.082031 18.722656 Z M 9.113281 20.972656 C 9.5625 21.160156 9.617188 21.710938 9.21875 22.003906 C 9.09375 22.097656 9.023438 22.101562 8.023438 22.101562 C 7.058594 22.101562 6.945312 22.09375 6.828125 22.011719 C 6.402344 21.726562 6.515625 21.066406 7.007812 20.9375 C 7.058594 20.929688 7.519531 20.914062 8.03125 20.910156 C 8.722656 20.90625 8.996094 20.921875 9.113281 20.972656 Z M 13.097656 20.972656 C 13.332031 21.070312 13.453125 21.253906 13.453125 21.519531 C 13.453125 21.71875 13.429688 21.769531 13.292969 21.90625 C 13.210938 21.992188 13.070312 22.078125 12.984375 22.097656 C 12.789062 22.132812 11.210938 22.132812 11.015625 22.097656 C 10.929688 22.078125 10.789062 21.992188 10.707031 21.90625 C 10.570312 21.769531 10.546875 21.710938 10.546875 21.53125 C 10.546875 21.265625 10.710938 21.023438 10.9375 20.957031 C 11.1875 20.886719 12.914062 20.898438 13.097656 20.972656 Z M 17.171875 21.019531 C 17.242188 21.066406 17.335938 21.167969 17.371094 21.238281 C 17.507812 21.507812 17.421875 21.84375 17.171875 22.011719 C 17.054688 22.09375 16.941406 22.101562 15.976562 22.101562 C 14.976562 22.101562 14.90625 22.097656 14.78125 22.003906 C 14.484375 21.789062 14.421875 21.429688 14.632812 21.160156 C 14.820312 20.925781 14.933594 20.90625 16.03125 20.921875 C 16.929688 20.929688 17.054688 20.9375 17.171875 21.019531 Z M 17.171875 21.019531 "/>
</g>
</svg>
